<svg xmlns="http://www.w3.org/2000/svg" xmlns:xlink="http://www.w3.org/1999/xlink" version="1.1" width="600pt" height="600pt" viewBox="0 0 600 600">
<defs>
<path id="font_1_2" d="M.5289917 .09118652C.49398805 .07421875 .43998719 .06323242 .3869934 .06323242 .22299195 .06323242 .12799073 .1690979 .12799073 .33389283 .12799073 .51068118 .23298645 .611557 .3909912 .611557 .44699098 .611557 .49398805 .59957888 .5269928 .5836029L.5479889 .65527346C.5249939 .66656497 .47200013 .6845703 .3880005 .6845703 .1789856 .6845703 .035995485 .5416565 .035995485 .3309021 .035995485 .11016846 .1789856-.009765625 .36898805-.009765625 .45098878-.009765625 .5149994 .006225586 .5469971 .022232056L.5289917 .09118652Z"/>
<path id="font_1_5" d="M.42099 0C.4149933 .03300476 .41299439 .074020389 .41299439 .11602783V.2970581C.41299439 .39408876 .3769989 .4951172 .22898865 .4951172 .16799927 .4951172 .10998535 .47810365 .069992069 .45210267L.08999634 .39408876C.12399292 .41610719 .17098999 .43011476 .21598816 .43011476 .31498719 .43011476 .32598878 .358078 .32598878 .31806947V.3080597C.13899231 .30906678 .034988405 .24505615 .034988405 .1280365 .034988405 .058242799 .084991458-.0107421879 .18299866-.0107421879 .2519989-.0107421879 .3039856 .023254395 .33099366 .06124878H.33399964L.34098817 0H.42099M.32798768 .16304016C.32798768 .15415955 .32598878 .14416504 .32299806 .13517761 .30899049 .09420776 .2689972 .054244996 .20599365 .054244996 .16099549 .054244996 .12298584 .081222537 .12298584 .13816834 .12298584 .23207093 .23199463 .24906922 .32798768 .24707031V.16304016Z"/>
<path id="font_1_11" d="M.07299805 0H.15899658V.29206849C.15899658 .30706788 .16099549 .32208253 .1659851 .335083 .17999268 .37908937 .21998596 .42311097 .2749939 .42311097 .34199525 .42311097 .37599183 .36709596 .37599183 .29006959V0H.46199037V.29907228C.46199037 .31507875 .46499635 .3310852 .46899415 .3430786 .48399354 .38609315 .522995 .42311097 .57299807 .42311097 .6439972 .42311097 .6779938 .36709596 .6779938 .2740631V0H.7639923V.2850647C.7639923 .45310975 .6689911 .4951172 .6049957 .4951172 .5589905 .4951172 .5269928 .48310853 .49798585 .46110536 .47799684 .44610597 .45899964 .42510987 .44400025 .3981018H.44198609C.42099 .45510865 .37098695 .4951172 .30499269 .4951172 .22499085 .4951172 .17999268 .45210267 .15299988 .4060974H.1499939L.1459961 .484375H.068984989C.07199097 .44433595 .07299805 .40330506 .07299805 .35327149V0Z"/>
<path id="font_1_8" d="M.46199037 .22605896C.46299745 .23506165 .46499635 .24905396 .46499635 .26705934 .46499635 .3560791 .4229889 .4951172 .2649994 .4951172 .12399292 .4951172 .037994386 .38009645 .037994386 .23405457 .037994386 .0881958 .1269989-.009765625 .27598573-.009765625 .35299684-.009765625 .4059906 .006225586 .43699647 .020233155L.42199708 .08320618C.3889923 .06921387 .35099793 .05822754 .28799439 .05822754 .19999695 .05822754 .12399292 .107177738 .12199402 .22605896H.46199037M.12298584 .2890625C.12998963 .3500824 .16899109 .43211366 .2579956 .43211366 .35699464 .43211366 .3809967 .3450775 .37998963 .2890625H.12298584Z"/>
<path id="font_1_13" d="M.07299805 0H.1599884V.2580719C.1599884 .2730713 .1619873 .28707887 .1639862 .29907228 .17599488 .36509706 .21998596 .41210938 .28199769 .41210938 .2939911 .41210938 .30299378 .4111023 .31199647 .4091034V.4921875C.3039856 .4941101 .29699708 .4951172 .2869873 .4951172 .22799683 .4951172 .1749878 .45411683 .15299988 .38909913H.14898682L.1459961 .484375H.068984989C.07199097 .43933106 .07299805 .3902893 .07299805 .33325196V0Z"/>
<path id="font_1_1" d="M.07598877 .0021362305C.10499573-.0018615723 .15098572-.005859375 .21099854-.005859375 .32099916-.005859375 .39698792 .014129639 .44400025 .057128908 .47799684 .09008789 .5009918 .13400269 .5009918 .19189453 .5009918 .29171754 .42599488 .34466554 .3619995 .36065675V.3626709C.43299867 .38867188 .47599793 .4456787 .47599793 .51068118 .47599793 .5636902 .45498658 .60369876 .41999818 .6296997 .37799073 .6636963 .32199098 .67871096 .23498535 .67871096 .17399597 .67871096 .11399841 .672699 .07598877 .66470339V.0021362305M.16299439 .60569766C.1769867 .6087036 .19999695 .6117096 .23999024 .6117096 .32798768 .6117096 .3880005 .58070376 .3880005 .50167849 .3880005 .43667604 .33399964 .38867188 .24198914 .38867188H.16299439V.60569766M.16299439 .32266236H.23498535C.32998658 .32266236 .40899659 .284729 .40899659 .19290161 .40899659 .095077518 .32598878 .06213379 .23599243 .06213379 .20498657 .06213379 .17999268 .06312561 .16299439 .06613159V.32266236Z"/>
<path id="font_1_9" d="M.16099549 0V.484375H.07299805V0H.16099549M.116989139 .6748047C.084991458 .6748047 .06199646 .6508026 .06199646 .61979678 .06199646 .589798 .083999637 .5657959 .114990238 .5657959 .1499939 .5657959 .17199707 .589798 .17098999 .61979678 .17098999 .6508026 .1499939 .6748047 .116989139 .6748047Z"/>
<path id="font_1_15" d="M.47799684 .484375H.3899994V.18728638C.3899994 .1712799 .3869934 .15527344 .38198854 .14227295 .3659973 .103256229 .32499696 .06225586 .2659912 .06225586 .18598938 .06225586 .1579895 .12426758 .1579895 .21629334V.484375H.069992069V.20129395C.069992069 .03125 .16099549-.0107421879 .23699951-.0107421879 .32299806-.0107421879 .37399293 .040252687 .39698792 .07925415H.39898683L.4039917 0H.48199464C.47898866 .038024904 .47799684 .08206177 .47799684 .13209534V.484375Z"/>
<path id="font_1_7" d="M.40299989 .08421326C.37799073 .07322693 .34498597 .06022644 .29499818 .06022644 .19898987 .06022644 .1269989 .12921143 .1269989 .24118042 .1269989 .3421631 .18699646 .4241333 .2979889 .4241333 .34599305 .4241333 .3789978 .4131317 .3999939 .4011383L.41999818 .46913148C.3959961 .48114015 .34999085 .49414063 .2979889 .49414063 .13999939 .49414063 .037994386 .38613893 .037994386 .23718262 .037994386 .08921814 .1329956-.009765625 .2789917-.009765625 .34399415-.009765625 .394989 .006225586 .41799928 .018234253L.40299989 .08421326Z"/>
<path id="font_1_14" d="M.09298706 .6003723V.484375H.017990113V.41737367H.09298706V.15325928C.09298706 .09623718 .101989749 .053222658 .1269989 .02722168 .147995 .0032196046 .18099976-.009765625 .22200012-.009765625 .2559967-.009765625 .2829895-.004776001 .2999878 .0022277833L.29599 .068222049C.2849884 .06523132 .2679901 .06222534 .24499512 .06222534 .19599915 .06222534 .1789856 .09623718 .1789856 .15626526V.41737367H.30499269V.484375H.1789856V.6233673L.09298706 .6003723Z"/>
<path id="font_1_3" d="M.07598877 .0021362305C.11999512-.0028686524 .17199707-.005859375 .23399353-.005859375 .36499024-.005859375 .46899415 .028137207 .5319977 .09111023 .59498599 .15306092 .6289978 .24299622 .6289978 .35290528 .6289978 .4618225 .59399417 .5397644 .5339966 .5947113 .47499085 .649704 .38598634 .67871096 .26098634 .67871096 .19198609 .67871096 .1289978 .672699 .07598877 .66470339V.0021362305M.16299439 .600708C.18598938 .6057129 .21998596 .6097107 .2649994 .6097107 .44898988 .6097107 .5389862 .50878909 .5379944 .34991456 .5379944 .16804505 .43699647 .06413269 .25099183 .06413269 .21699524 .06413269 .18499756 .06513977 .16299439 .069122318V.600708Z"/>
<path id="font_1_6" d="M.14498902 0 .14898682 .08024597H.1519928C.18798828 .01625061 .24398804-.0107421879 .31399537-.0107421879 .42199708-.0107421879 .5309906 .07524109 .5309906 .2481842 .5319977 .39512635 .44699098 .4951172 .32699586 .4951172 .24899292 .4951172 .19299317 .46011354 .1619873 .40611268H.1599884V.70996096H.07299805V.12522888C.07299805 .08201599 .070999149 .03300476 .068984989 0H.14498902M.1599884 .2810669C.1599884 .29507447 .16299439 .30706788 .16499329 .31707765 .18299866 .38409425 .23899842 .42510987 .29899598 .42510987 .3929901 .42510987 .44299317 .3420868 .44299317 .24505615 .44299317 .13421631 .3880005 .059249879 .29599 .059249879 .23199463 .059249879 .18099976 .10122681 .1639862 .16221619 .1619873 .1722107 .1599884 .18319702 .1599884 .19419861V.2810669Z"/>
<path id="font_1_4" d="M.07598877 .6738281V0H.16299439V.31559754H.4889984V0H.57699587V.6738281H.4889984V.39160157H.16299439V.6738281H.07598877Z"/>
<path id="font_1_12" d="M.27799989 .4951172C.14399719 .4951172 .037994386 .40011598 .037994386 .2381897 .037994386 .085235599 .13899231-.0107421879 .269989-.0107421879 .3869934-.0107421879 .5109863 .06724548 .5109863 .2461853 .5109863 .39411927 .4169922 .4951172 .27799989 .4951172M.27598573 .42910768C.37998963 .42910768 .42099 .32514955 .42099 .24317932 .42099 .13421631 .35798646 .055252077 .27398683 .055252077 .18798828 .055252077 .1269989 .13522339 .1269989 .24118042 .1269989 .33314515 .17199707 .42910768 .27598573 .42910768Z"/>
<path id="font_1_10" d="M.07299805 0H.16099549V.70996096H.07299805V0Z"/>
</defs>
<g id="layer_1" data-name="Layer 1">
<path transform="matrix(1,0,0,-1,230.689,128.9429)" stroke-width="9" stroke-linecap="butt" stroke-miterlimit="10" stroke-linejoin="miter" fill="none" stroke="#231f20" d="M0 0 230.636-.945"/>
<path transform="matrix(1,0,0,-1,231.6035,419.0645)" stroke-width="9" stroke-linecap="butt" stroke-miterlimit="10" stroke-linejoin="miter" fill="none" stroke="#231f20" d="M0 0V167.484"/>
<path transform="matrix(1,0,0,-1,452.1924,419.0645)" stroke-width="9" stroke-linecap="butt" stroke-miterlimit="10" stroke-linejoin="miter" fill="none" stroke="#231f20" d="M0 0 1.831 289.207"/>
<path transform="matrix(1,0,0,-1,290.1768,419.0645)" stroke-width="9" stroke-linecap="butt" stroke-miterlimit="10" stroke-linejoin="miter" fill="none" stroke="#231f20" d="M0 0H167.484"/>
<path transform="matrix(1,0,0,-1,132.7607,129.40039)" stroke-width="9" stroke-linecap="butt" stroke-miterlimit="10" stroke-linejoin="miter" fill="none" stroke="#231f20" d="M0 0V-94.724"/>
<path transform="matrix(1,0,0,-1,230.689,128.9429)" stroke-width="9" stroke-linecap="butt" stroke-miterlimit="10" stroke-linejoin="miter" fill="none" stroke="#231f20" d="M0 0-105.25-.492"/>
<path transform="matrix(1,0,0,-1,132.7607,224.12451)" stroke-width="9" stroke-linecap="butt" stroke-miterlimit="10" stroke-linejoin="miter" fill="none" stroke="#231f20" d="M0 0V-50.336"/>
<path transform="matrix(1,0,0,-1,231.6035,274.4609)" stroke-width="9" stroke-linecap="butt" stroke-miterlimit="10" stroke-linejoin="miter" fill="none" stroke="#231f20" d="M0 0H-106.165"/>
<path transform="matrix(1,0,0,-1,230.689,128.9429)" stroke-width="9" stroke-linecap="butt" stroke-miterlimit="10" stroke-linejoin="miter" fill="none" stroke="#231f20" d="M0 0 .915-86.944"/>
<path transform="matrix(1,0,0,-1,231.6035,192.35791)" stroke-width="9" stroke-linecap="butt" stroke-miterlimit="10" stroke-linejoin="miter" fill="none" stroke="#231f20" d="M0 0H48.506"/>
<path transform="matrix(1,0,0,-1,329.5312,419.0645)" stroke-width="9" stroke-linecap="butt" stroke-miterlimit="10" stroke-linejoin="miter" fill="none" stroke="#231f20" d="M0 0V12.813"/>
<path transform="matrix(1,0,0,-1,329.5312,274.4609)" stroke-width="9" stroke-linecap="butt" stroke-miterlimit="10" stroke-linejoin="miter" fill="none" stroke="#231f20" d="M0 0H123.576"/>
<path transform="matrix(1,0,0,-1,324.04,371.30183)" stroke-width="9" stroke-linecap="butt" stroke-miterlimit="10" stroke-linejoin="miter" fill="none" stroke="#231f20" d="M0 0 128.152 .956"/>
<path transform="matrix(1,0,0,-1,329.5312,129.1719)" stroke-width="9" stroke-linecap="butt" stroke-miterlimit="10" stroke-linejoin="miter" fill="none" stroke="#231f20" d="M0 0V-83.055"/>
<path transform="matrix(1,0,0,-1,329.5312,274.4609)" stroke-width="9" stroke-linecap="butt" stroke-miterlimit="10" stroke-linejoin="miter" fill="none" stroke="#231f20" d="M0 0V22.88"/>
<path transform="matrix(1,0,0,-1,329.5312,383.3711)" stroke-width="9" stroke-linecap="butt" stroke-miterlimit="10" stroke-linejoin="miter" fill="none" stroke="#231f20" d="M0 0V40.27"/>
<path transform="matrix(1,0,0,-1,329.5312,274.4609)" stroke-width="9" stroke-linecap="butt" stroke-miterlimit="10" stroke-linejoin="miter" fill="none" stroke="#231f20" d="M0 0V-36.608"/>
<path transform="matrix(1,0,0,-1,329.5312,192.35791)" stroke-width="9" stroke-linecap="butt" stroke-miterlimit="10" stroke-linejoin="miter" fill="none" stroke="#231f20" d="M0 0H-23.796"/>
<path transform="matrix(1,0,0,-1,224.7666,419.0645)" stroke-width="9" stroke-linecap="butt" stroke-miterlimit="10" stroke-linejoin="miter" fill="none" stroke="#231f20" d="M0 0H29.745"/>
<path transform="matrix(1,0,0,-1,274.1899,428.3389)" stroke-width="3" stroke-linecap="butt" stroke-miterlimit="10" stroke-linejoin="miter" fill="none" stroke="#030505" d="M0 0V-50.604"/>
<path transform="matrix(1,0,0,-1,276.9692,428.0371)" stroke-width="3" stroke-linecap="butt" stroke-miterlimit="10" stroke-linejoin="miter" fill="none" stroke="#030505" d="M0 0-22.658-21.306"/>
<path transform="matrix(1,0,0,-1,272.7651,429.48933)" stroke-width="3" stroke-linecap="butt" stroke-miterlimit="10" stroke-linejoin="miter" fill="none" stroke="#030505" d="M0 0 22.8-20.701"/>
<use data-text="C" xlink:href="#font_1_2" transform="matrix(28.2526,0,0,-28.2526,147.0215,232.91019)" fill="#231f20"/>
<use data-text="a" xlink:href="#font_1_5" transform="matrix(28.2526,0,0,-28.2526,163.21024,232.91019)" fill="#231f20"/>
<use data-text="m" xlink:href="#font_1_11" transform="matrix(28.2526,0,0,-28.2526,176.82799,232.91019)" fill="#231f20"/>
<use data-text="e" xlink:href="#font_1_8" transform="matrix(28.2526,0,0,-28.2526,200.39066,232.91019)" fill="#231f20"/>
<use data-text="r" xlink:href="#font_1_13" transform="matrix(28.2526,0,0,-28.2526,214.54521,232.91019)" fill="#231f20"/>
<use data-text="a" xlink:href="#font_1_5" transform="matrix(28.2526,0,0,-28.2526,223.64255,232.91019)" fill="#231f20"/>
<use data-text="B" xlink:href="#font_1_1" transform="matrix(28.2526,0,0,-28.2526,254.52265,172.42139)" fill="#231f20"/>
<use data-text="a" xlink:href="#font_1_5" transform="matrix(28.2526,0,0,-28.2526,269.83555,172.42139)" fill="#231f20"/>
<use data-text="i" xlink:href="#font_1_9" transform="matrix(28.2526,0,0,-28.2526,283.4533,172.42139)" fill="#231f20"/>
<use data-text="e" xlink:href="#font_1_8" transform="matrix(28.2526,0,0,-28.2526,290.06443,172.42139)" fill="#231f20"/>
<use data-text="C" xlink:href="#font_1_2" transform="matrix(28.2526,0,0,-28.2526,335.94664,232.91022)" fill="#231f20"/>
<use data-text="a" xlink:href="#font_1_5" transform="matrix(28.2526,0,0,-28.2526,352.13539,232.91022)" fill="#231f20"/>
<use data-text="m" xlink:href="#font_1_11" transform="matrix(28.2526,0,0,-28.2526,365.75315,232.91022)" fill="#231f20"/>
<use data-text="e" xlink:href="#font_1_8" transform="matrix(28.2526,0,0,-28.2526,389.31584,232.91022)" fill="#231f20"/>
<use data-text="r" xlink:href="#font_1_13" transform="matrix(28.2526,0,0,-28.2526,403.47038,232.91022)" fill="#231f20"/>
<use data-text="a" xlink:href="#font_1_5" transform="matrix(28.2526,0,0,-28.2526,412.5677,232.91022)" fill="#231f20"/>
<use data-text="B" xlink:href="#font_1_1" transform="matrix(28.2526,0,0,-28.2526,335.94664,335.41065)" fill="#231f20"/>
<use data-text="u" xlink:href="#font_1_15" transform="matrix(28.2526,0,0,-28.2526,351.25953,335.41065)" fill="#231f20"/>
<use data-text="c" xlink:href="#font_1_7" transform="matrix(28.2526,0,0,-28.2526,366.8267,335.41065)" fill="#231f20"/>
<use data-text="a" xlink:href="#font_1_5" transform="matrix(28.2526,0,0,-28.2526,379.48387,335.41065)" fill="#231f20"/>
<use data-text="t" xlink:href="#font_1_14" transform="matrix(28.2526,0,0,-28.2526,392.98863,335.41065)" fill="#231f20"/>
<use data-text="a" xlink:href="#font_1_5" transform="matrix(28.2526,0,0,-28.2526,402.34025,335.41065)" fill="#231f20"/>
<use data-text="r" xlink:href="#font_1_13" transform="matrix(28.2526,0,0,-28.2526,415.958,335.41065)" fill="#231f20"/>
<use data-text="i" xlink:href="#font_1_9" transform="matrix(28.2526,0,0,-28.2526,425.3096,335.41065)" fill="#231f20"/>
<use data-text="e" xlink:href="#font_1_8" transform="matrix(28.2526,0,0,-28.2526,431.92073,335.41065)" fill="#231f20"/>
<use data-text="D" xlink:href="#font_1_3" transform="matrix(28.2526,0,0,-28.2526,335.94664,401.32398)" fill="#231f20"/>
<use data-text="e" xlink:href="#font_1_8" transform="matrix(28.2526,0,0,-28.2526,354.87586,401.32398)" fill="#231f20"/>
<use data-text="b" xlink:href="#font_1_6" transform="matrix(28.2526,0,0,-28.2526,369.0304,401.32398)" fill="#231f20"/>
<use data-text="a" xlink:href="#font_1_5" transform="matrix(28.2526,0,0,-28.2526,385.10615,401.32398)" fill="#231f20"/>
<use data-text="r" xlink:href="#font_1_13" transform="matrix(28.2526,0,0,-28.2526,398.7239,401.32398)" fill="#231f20"/>
<use data-text="a" xlink:href="#font_1_5" transform="matrix(28.2526,0,0,-28.2526,407.81843,401.32398)" fill="#231f20"/>
<use data-text="H" xlink:href="#font_1_4" transform="matrix(28.2526,0,0,-28.2526,255.8505,329.92964)" fill="#231f20"/>
<use data-text="o" xlink:href="#font_1_12" transform="matrix(28.2526,0,0,-28.2526,274.27119,329.92964)" fill="#231f20"/>
<use data-text="l" xlink:href="#font_1_10" transform="matrix(28.2526,0,0,-28.2526,289.78187,329.92964)" fill="#231f20"/>
</g>
</svg>
