<svg xmlns="http://www.w3.org/2000/svg" xmlns:xlink="http://www.w3.org/1999/xlink" version="1.1" width="600pt" height="600pt" viewBox="0 0 600 600">
<defs>
<path id="font_1_6" d="M.07598877 0H.45098878V.07299805H.16299439V.6738281H.07598877V0Z"/>
<path id="font_1_11" d="M.16099549 0V.484375H.07299805V0H.16099549M.116989139 .6748047C.084991458 .6748047 .06199646 .6508026 .06199646 .61979678 .06199646 .589798 .083999637 .5657959 .114990238 .5657959 .1499939 .5657959 .17199707 .589798 .17098999 .61979678 .17098999 .6508026 .1499939 .6748047 .116989139 .6748047Z"/>
<path id="font_1_19" d="M.0129852299 .484375 .19699097 0H.2809906L.47099305 .484375H.3789978L.2849884 .2121582C.2689972 .1680603 .25498963 .1280365 .24398804 .08799744H.24099732C.23098755 .1280365 .21798706 .1680603 .20199585 .21211243L.10699463 .484375H.0129852299Z"/>
<path id="font_1_14" d="M.07299805 0H.16099549V.29107667C.16099549 .30607606 .16299439 .32107545 .16699219 .33207704 .18199158 .38108827 .22698975 .42210389 .2849884 .42210389 .36799623 .42210389 .39698792 .35708619 .39698792 .279068V0H.4850006V.28907777C.4850006 .45510865 .3809967 .4951172 .31399537 .4951172 .23399353 .4951172 .17799378 .45010377 .1539917 .4040985H.1519928L.14698792 .484375H.068984989C.07199097 .44433595 .07299805 .40330506 .07299805 .35327149V0Z"/>
<path id="font_1_10" d="M.41299439 .484375 .40899659 .4111023H.40699769C.38598634 .45111085 .33999635 .4951172 .2559967 .4951172 .14498902 .4951172 .037994386 .4020996 .037994386 .23802185 .037994386 .10395813 .12399292 .001953125 .24398804 .001953125 .31900025 .001953125 .37098695 .03794861 .397995 .08294678H.3999939V.028945923C.3999939-.09301758 .33399964-.13999939 .24398804-.13999939 .18399048-.13999939 .13398743-.12199402 .101989749-.102005008L.07998657-.16899109C.11898804-.19499207 .18299866-.20898438 .24099732-.20898438 .3019867-.20898438 .36999513-.19499207 .4169922-.15098572 .46398927-.10900879 .48599244-.041030885 .48599244 .06994629V.35107423C.48599244 .41029359 .48799134 .44932557 .48999024 .484375H.41299439M.39898683 .2060852C.39898683 .19107056 .39698792 .174057 .3919983 .15904236 .37298585 .10298157 .32398988 .06893921 .269989 .06893921 .1749878 .06893921 .1269989 .14802552 .1269989 .24311829 .1269989 .35507203 .18699646 .42611695 .2709961 .42611695 .33499146 .42611695 .37799073 .38409425 .3939972 .33306886 .397995 .32106019 .39898683 .3080597 .39898683 .29304505V.2060852Z"/>
<path id="font_1_1" d="M0 0Z"/>
<path id="font_1_2" d="M.2659912 .53186038V.296875H.039993287V.23686219H.2659912V0H.32998658V.23686219H.55599978V.296875H.32998658V.53186038H.2659912Z"/>
<path id="font_1_3" d="M.07598877 .0021362305C.10499573-.0018615723 .15098572-.005859375 .21099854-.005859375 .32099916-.005859375 .39698792 .014129639 .44400025 .057128908 .47799684 .09008789 .5009918 .13400269 .5009918 .19189453 .5009918 .29171754 .42599488 .34466554 .3619995 .36065675V.3626709C.43299867 .38867188 .47599793 .4456787 .47599793 .51068118 .47599793 .5636902 .45498658 .60369876 .41999818 .6296997 .37799073 .6636963 .32199098 .67871096 .23498535 .67871096 .17399597 .67871096 .11399841 .672699 .07598877 .66470339V.0021362305M.16299439 .60569766C.1769867 .6087036 .19999695 .6117096 .23999024 .6117096 .32798768 .6117096 .3880005 .58070376 .3880005 .50167849 .3880005 .43667604 .33399964 .38867188 .24198914 .38867188H.16299439V.60569766M.16299439 .32266236H.23498535C.32998658 .32266236 .40899659 .284729 .40899659 .19290161 .40899659 .095077518 .32598878 .06213379 .23599243 .06213379 .20498657 .06213379 .17999268 .06312561 .16299439 .06613159V.32266236Z"/>
<path id="font_1_18" d="M.47799684 .484375H.3899994V.18728638C.3899994 .1712799 .3869934 .15527344 .38198854 .14227295 .3659973 .103256229 .32499696 .06225586 .2659912 .06225586 .18598938 .06225586 .1579895 .12426758 .1579895 .21629334V.484375H.069992069V.20129395C.069992069 .03125 .16099549-.0107421879 .23699951-.0107421879 .32299806-.0107421879 .37399293 .040252687 .39698792 .07925415H.39898683L.4039917 0H.48199464C.47898866 .038024904 .47799684 .08206177 .47799684 .13209534V.484375Z"/>
<path id="font_1_8" d="M.40299989 .08421326C.37799073 .07322693 .34498597 .06022644 .29499818 .06022644 .19898987 .06022644 .1269989 .12921143 .1269989 .24118042 .1269989 .3421631 .18699646 .4241333 .2979889 .4241333 .34599305 .4241333 .3789978 .4131317 .3999939 .4011383L.41999818 .46913148C.3959961 .48114015 .34999085 .49414063 .2979889 .49414063 .13999939 .49414063 .037994386 .38613893 .037994386 .23718262 .037994386 .08921814 .1329956-.009765625 .2789917-.009765625 .34399415-.009765625 .394989 .006225586 .41799928 .018234253L.40299989 .08421326Z"/>
<path id="font_1_7" d="M.42099 0C.4149933 .03300476 .41299439 .074020389 .41299439 .11602783V.2970581C.41299439 .39408876 .3769989 .4951172 .22898865 .4951172 .16799927 .4951172 .10998535 .47810365 .069992069 .45210267L.08999634 .39408876C.12399292 .41610719 .17098999 .43011476 .21598816 .43011476 .31498719 .43011476 .32598878 .358078 .32598878 .31806947V.3080597C.13899231 .30906678 .034988405 .24505615 .034988405 .1280365 .034988405 .058242799 .084991458-.0107421879 .18299866-.0107421879 .2519989-.0107421879 .3039856 .023254395 .33099366 .06124878H.33399964L.34098817 0H.42099M.32798768 .16304016C.32798768 .15415955 .32598878 .14416504 .32299806 .13517761 .30899049 .09420776 .2689972 .054244996 .20599365 .054244996 .16099549 .054244996 .12298584 .081222537 .12298584 .13816834 .12298584 .23207093 .23199463 .24906922 .32798768 .24707031V.16304016Z"/>
<path id="font_1_17" d="M.09298706 .6003723V.484375H.017990113V.41737367H.09298706V.15325928C.09298706 .09623718 .101989749 .053222658 .1269989 .02722168 .147995 .0032196046 .18099976-.009765625 .22200012-.009765625 .2559967-.009765625 .2829895-.004776001 .2999878 .0022277833L.29599 .068222049C.2849884 .06523132 .2679901 .06222534 .24499512 .06222534 .19599915 .06222534 .1789856 .09623718 .1789856 .15626526V.41737367H.30499269V.484375H.1789856V.6233673L.09298706 .6003723Z"/>
<path id="font_1_16" d="M.07299805 0H.1599884V.2580719C.1599884 .2730713 .1619873 .28707887 .1639862 .29907228 .17599488 .36509706 .21998596 .41210938 .28199769 .41210938 .2939911 .41210938 .30299378 .4111023 .31199647 .4091034V.4921875C.3039856 .4941101 .29699708 .4951172 .2869873 .4951172 .22799683 .4951172 .1749878 .45411683 .15299988 .38909913H.14898682L.1459961 .484375H.068984989C.07199097 .43933106 .07299805 .3902893 .07299805 .33325196V0Z"/>
<path id="font_1_9" d="M.46199037 .22605896C.46299745 .23506165 .46499635 .24905396 .46499635 .26705934 .46499635 .3560791 .4229889 .4951172 .2649994 .4951172 .12399292 .4951172 .037994386 .38009645 .037994386 .23405457 .037994386 .0881958 .1269989-.009765625 .27598573-.009765625 .35299684-.009765625 .4059906 .006225586 .43699647 .020233155L.42199708 .08320618C.3889923 .06921387 .35099793 .05822754 .28799439 .05822754 .19999695 .05822754 .12399292 .107177738 .12199402 .22605896H.46199037M.12298584 .2890625C.12998963 .3500824 .16899109 .43211366 .2579956 .43211366 .35699464 .43211366 .3809967 .3450775 .37998963 .2890625H.12298584Z"/>
<path id="font_1_5" d="M.07598877 .6738281V0H.16299439V.31559754H.4889984V0H.57699587V.6738281H.4889984V.39160157H.16299439V.6738281H.07598877Z"/>
<path id="font_1_15" d="M.27799989 .4951172C.14399719 .4951172 .037994386 .40011598 .037994386 .2381897 .037994386 .085235599 .13899231-.0107421879 .269989-.0107421879 .3869934-.0107421879 .5109863 .06724548 .5109863 .2461853 .5109863 .39411927 .4169922 .4951172 .27799989 .4951172M.27598573 .42910768C.37998963 .42910768 .42099 .32514955 .42099 .24317932 .42099 .13421631 .35798646 .055252077 .27398683 .055252077 .18798828 .055252077 .1269989 .13522339 .1269989 .24118042 .1269989 .33314515 .17199707 .42910768 .27598573 .42910768Z"/>
<path id="font_1_12" d="M.07299805 0H.16099549V.70996096H.07299805V0Z"/>
<path id="font_1_4" d="M.5289917 .09118652C.49398805 .07421875 .43998719 .06323242 .3869934 .06323242 .22299195 .06323242 .12799073 .1690979 .12799073 .33389283 .12799073 .51068118 .23298645 .611557 .3909912 .611557 .44699098 .611557 .49398805 .59957888 .5269928 .5836029L.5479889 .65527346C.5249939 .66656497 .47200013 .6845703 .3880005 .6845703 .1789856 .6845703 .035995485 .5416565 .035995485 .3309021 .035995485 .11016846 .1789856-.009765625 .36898805-.009765625 .45098878-.009765625 .5149994 .006225586 .5469971 .022232056L.5289917 .09118652Z"/>
<path id="font_1_13" d="M.07299805 0H.15899658V.29206849C.15899658 .30706788 .16099549 .32208253 .1659851 .335083 .17999268 .37908937 .21998596 .42311097 .2749939 .42311097 .34199525 .42311097 .37599183 .36709596 .37599183 .29006959V0H.46199037V.29907228C.46199037 .31507875 .46499635 .3310852 .46899415 .3430786 .48399354 .38609315 .522995 .42311097 .57299807 .42311097 .6439972 .42311097 .6779938 .36709596 .6779938 .2740631V0H.7639923V.2850647C.7639923 .45310975 .6689911 .4951172 .6049957 .4951172 .5589905 .4951172 .5269928 .48310853 .49798585 .46110536 .47799684 .44610597 .45899964 .42510987 .44400025 .3981018H.44198609C.42099 .45510865 .37098695 .4951172 .30499269 .4951172 .22499085 .4951172 .17999268 .45210267 .15299988 .4060974H.1499939L.1459961 .484375H.068984989C.07199097 .44433595 .07299805 .40330506 .07299805 .35327149V0Z"/>
</defs>
<g id="layer_1" data-name="Layer 1">
<path transform="matrix(1,0,0,-1,183.8096,180.84619)" stroke-width="8" stroke-linecap="butt" stroke-miterlimit="10" stroke-linejoin="miter" fill="none" stroke="#231f20" d="M0 0H285.714"/>
<path transform="matrix(1,0,0,-1,187.8804,275.6631)" stroke-width="8" stroke-linecap="butt" stroke-miterlimit="10" stroke-linejoin="miter" fill="none" stroke="#231f20" d="M0 0V94.817"/>
<path transform="matrix(1,0,0,-1,130.0679,275.6631)" stroke-width="8" stroke-linecap="butt" stroke-miterlimit="10" stroke-linejoin="miter" fill="none" stroke="#231f20" d="M0 0H56.813"/>
<path transform="matrix(1,0,0,-1,465.7187,180.84619)" stroke-width="8" stroke-linecap="butt" stroke-miterlimit="10" stroke-linejoin="miter" fill="none" stroke="#231f20" d="M0 0V-211.998"/>
<path transform="matrix(1,0,0,-1,214.1021,389.3027)" stroke-width="8" stroke-linecap="butt" stroke-miterlimit="10" stroke-linejoin="miter" fill="none" stroke="#231f20" d="M0 0H250.617"/>
<path transform="matrix(1,0,0,-1,218.4468,335.6396)" stroke-width="8" stroke-linecap="butt" stroke-miterlimit="10" stroke-linejoin="miter" fill="none" stroke="#231f20" d="M0 0V-53.663"/>
<path transform="matrix(1,0,0,-1,130.0679,335.6396)" stroke-width="8" stroke-linecap="butt" stroke-miterlimit="10" stroke-linejoin="miter" fill="none" stroke="#231f20" d="M0 0H88.379"/>
<path transform="matrix(1,0,0,-1,133.2168,316.7002)" stroke-width="8" stroke-linecap="butt" stroke-miterlimit="10" stroke-linejoin="miter" fill="none" stroke="#231f20" d="M0 0V-21.722"/>
<path transform="matrix(1,0,0,-1,134.2168,275.6631)" stroke-width="8" stroke-linecap="butt" stroke-miterlimit="10" stroke-linejoin="miter" fill="none" stroke="#231f20" d="M0 0V-14.731"/>
<path transform="matrix(1,0,0,-1,186.8804,275.6631)" stroke-width="8" stroke-linecap="butt" stroke-miterlimit="10" stroke-linejoin="miter" fill="none" stroke="#231f20" d="M0 0H31.566"/>
<path transform="matrix(1,0,0,-1,218.4468,335.6396)" stroke-width="8" stroke-linecap="butt" stroke-miterlimit="10" stroke-linejoin="miter" fill="none" stroke="#231f20" d="M0 0V23.068"/>
<path transform="matrix(1,0,0,-1,300.52,389.3027)" stroke-width="8" stroke-linecap="butt" stroke-miterlimit="10" stroke-linejoin="miter" fill="none" stroke="#231f20" d="M0 0V72.603"/>
<path transform="matrix(1,0,0,-1,297.415,283.0288)" stroke-width="8" stroke-linecap="butt" stroke-miterlimit="10" stroke-linejoin="miter" fill="none" stroke="#231f20" d="M0 0H168.304"/>
<path transform="matrix(1,0,0,-1,275.2666,316.7002)" stroke-width="8" stroke-linecap="butt" stroke-miterlimit="10" stroke-linejoin="miter" fill="none" stroke="#231f20" d="M0 0H29.632"/>
<path transform="matrix(1,0,0,-1,218.4468,316.7002)" stroke-width="8" stroke-linecap="butt" stroke-miterlimit="10" stroke-linejoin="miter" fill="none" stroke="#231f20" d="M0 0H30.515"/>
<path transform="matrix(1,0,0,-1,241.5957,480.8467)" stroke-width="8" stroke-linecap="butt" stroke-miterlimit="10" stroke-linejoin="miter" fill="none" stroke="#231f20" d="M0 0H1.052"/>
<path transform="matrix(1,0,0,-1,301.5205,283.0288)" stroke-width="8" stroke-linecap="butt" stroke-miterlimit="10" stroke-linejoin="miter" fill="none" stroke="#231f20" d="M0 0V-7.365"/>
<use data-text="L" xlink:href="#font_1_6" transform="matrix(21,0,0,-21,260.6802,240.4624)" fill="#231f20"/>
<use data-text="i" xlink:href="#font_1_11" transform="matrix(21,0,0,-21,270.5922,240.4624)" fill="#231f20"/>
<use data-text="v" xlink:href="#font_1_19" transform="matrix(21,0,0,-21,275.5062,240.4624)" fill="#231f20"/>
<use data-text="i" xlink:href="#font_1_11" transform="matrix(21,0,0,-21,285.6072,240.4624)" fill="#231f20"/>
<use data-text="n" xlink:href="#font_1_14" transform="matrix(21,0,0,-21,290.5212,240.4624)" fill="#231f20"/>
<use data-text="g" xlink:href="#font_1_10" transform="matrix(21,0,0,-21,302.1762,240.4624)" fill="#231f20"/>
<use data-text=" " xlink:href="#font_1_1" transform="matrix(21,0,0,-21,313.91523,240.4624)" fill="#231f20"/>
<use data-text="+" xlink:href="#font_1_2" transform="matrix(21,0,0,-21,318.36723,240.4624)" fill="#231f20"/>
<use data-text=" " xlink:href="#font_1_1" transform="matrix(21,0,0,-21,330.8832,240.4624)" fill="#231f20"/>
<use data-text="B" xlink:href="#font_1_3" transform="matrix(21,0,0,-21,335.3352,240.4624)" fill="#231f20"/>
<use data-text="u" xlink:href="#font_1_18" transform="matrix(21,0,0,-21,346.7172,240.4624)" fill="#231f20"/>
<use data-text="c" xlink:href="#font_1_8" transform="matrix(21,0,0,-21,358.2882,240.4624)" fill="#231f20"/>
<use data-text="a" xlink:href="#font_1_7" transform="matrix(21,0,0,-21,367.6962,240.4624)" fill="#231f20"/>
<use data-text="t" xlink:href="#font_1_17" transform="matrix(21,0,0,-21,377.7342,240.4624)" fill="#231f20"/>
<use data-text="a" xlink:href="#font_1_7" transform="matrix(21,0,0,-21,384.68519,240.4624)" fill="#231f20"/>
<use data-text="r" xlink:href="#font_1_16" transform="matrix(21,0,0,-21,394.8072,240.4624)" fill="#231f20"/>
<use data-text="i" xlink:href="#font_1_11" transform="matrix(21,0,0,-21,401.7582,240.4624)" fill="#231f20"/>
<use data-text="e" xlink:href="#font_1_9" transform="matrix(21,0,0,-21,406.6722,240.4624)" fill="#231f20"/>
<use data-text="H" xlink:href="#font_1_5" transform="matrix(21,0,0,-21,155.7432,312.57643)" fill="#231f20"/>
<use data-text="o" xlink:href="#font_1_15" transform="matrix(21,0,0,-21,169.4352,312.57643)" fill="#231f20"/>
<use data-text="l" xlink:href="#font_1_12" transform="matrix(21,0,0,-21,180.9642,312.57643)" fill="#231f20"/>
<use data-text="B" xlink:href="#font_1_3" transform="matrix(21,0,0,-21,242.1162,357.74745)" fill="#231f20"/>
<use data-text="a" xlink:href="#font_1_7" transform="matrix(21,0,0,-21,253.4982,357.74745)" fill="#231f20"/>
<use data-text="i" xlink:href="#font_1_11" transform="matrix(21,0,0,-21,263.6202,357.74745)" fill="#231f20"/>
<use data-text="e" xlink:href="#font_1_9" transform="matrix(21,0,0,-21,268.5342,357.74745)" fill="#231f20"/>
<use data-text="C" xlink:href="#font_1_4" transform="matrix(21,0,0,-21,351.8412,353.0224)" fill="#231f20"/>
<use data-text="a" xlink:href="#font_1_7" transform="matrix(21,0,0,-21,363.87419,353.0224)" fill="#231f20"/>
<use data-text="m" xlink:href="#font_1_13" transform="matrix(21,0,0,-21,373.9962,353.0224)" fill="#231f20"/>
<use data-text="e" xlink:href="#font_1_9" transform="matrix(21,0,0,-21,391.5102,353.0224)" fill="#231f20"/>
<use data-text="r" xlink:href="#font_1_16" transform="matrix(21,0,0,-21,402.0312,353.0224)" fill="#231f20"/>
<use data-text="a" xlink:href="#font_1_7" transform="matrix(21,0,0,-21,408.79319,353.0224)" fill="#231f20"/>
<path transform="matrix(1,0,0,-1,118.249,305.8662)" stroke-width="3" stroke-linecap="butt" stroke-miterlimit="10" stroke-linejoin="miter" fill="none" stroke="#030505" d="M0 0-30-.325"/>
<path transform="matrix(1,0,0,-1,118.4155,304.4766)" stroke-width="3" stroke-linecap="butt" stroke-miterlimit="10" stroke-linejoin="miter" fill="none" stroke="#030505" d="M0 0-12.531-11.453"/>
<path transform="matrix(1,0,0,-1,117.5732,306.5859)" stroke-width="3" stroke-linecap="butt" stroke-miterlimit="10" stroke-linejoin="miter" fill="none" stroke="#030505" d="M0 0-12.373 11.254"/>
</g>
</svg>
