<svg xmlns="http://www.w3.org/2000/svg" xmlns:xlink="http://www.w3.org/1999/xlink" version="1.1" width="600pt" height="600pt" viewBox="0 0 600 600">
<defs>
<clipPath id="clip_1">
<path transform="matrix(1,0,0,-1,0,600)" d="M0 600H600V0H0Z"/>
</clipPath>
<clipPath id="clip_2">
<path transform="matrix(1,0,0,-1,0,600)" d="M39.5918-6.38585H577.687V449.374H39.5918Z"/>
</clipPath>
<clipPath id="clip_3">
<path transform="matrix(1,0,0,-1,0,600)" d="M0 600H600V0H0Z"/>
</clipPath>
<path id="font_4_3" d="M.5289917 .09118652C.49398805 .07421875 .43998719 .06323242 .3869934 .06323242 .22299195 .06323242 .12799073 .1690979 .12799073 .33389283 .12799073 .51068118 .23298645 .611557 .3909912 .611557 .44699098 .611557 .49398805 .59957888 .5269928 .5836029L.5479889 .65527346C.5249939 .66656497 .47200013 .6845703 .3880005 .6845703 .1789856 .6845703 .035995485 .5416565 .035995485 .3309021 .035995485 .11016846 .1789856-.009765625 .36898805-.009765625 .45098878-.009765625 .5149994 .006225586 .5469971 .022232056L.5289917 .09118652Z"/>
<path id="font_4_1" d="M.42399598 .21191406 .49598695 0H.58898928L.35899354 .6738281H.2539978L.024993897 0H.114990238L.18499756 .21191406H.42399598M.20298767 .27990724 .2689972 .47486878C.28199769 .5158386 .29299928 .556839 .30299378 .596817H.30499269C.31498719 .5578308 .32499696 .5178375 .33999635 .4738617L.4059906 .27990724H.20298767Z"/>
<path id="font_4_9" d="M.6609955 0H.74598696L.70399478 .6738281H.59298709L.47299195 .34788514C.44299317 .26287843 .4189911 .18888855 .4019928 .120895389H.39898683C.38198854 .19088745 .35899354 .26487733 .33099366 .3478546L.21598816 .6738281H.10499573L.057998659 0H.14099121L.15899658 .2889099C.16499329 .38987733 .16999817 .50283816 .17199707 .5868225H.17399597C.19299317 .50683596 .21998596 .41986085 .2519989 .32489015L.36099244 .00390625H.4269867L.54599 .33087159C.5799866 .42384339 .60798647 .507843 .6309967 .5868225H.6339874C.6329956 .50283816 .6389923 .38986207 .6439972 .29586793L.6609955 0Z"/>
<path id="font_4_5" d="M.4249878 .3876953H.16299439V.6008148H.43998719V.6738281H.07598877V0H.45498658V.07299805H.16299439V.3156891H.4249878V.3876953Z"/>
<path id="font_4_11" d="M.07598877 0H.16299439V.2919922H.24499512C.32398988 .2889862 .3600006 .25398255 .37998963 .16099549 .39898683 .07699585 .4139862 .018997193 .4249878 0H.5149994C.5009918 .025985718 .4850006 .09098816 .46299745 .1849823 .44699098 .25498963 .41600038 .30297853 .3639984 .3209839V.32398988C.43499757 .34799195 .4909973 .40693666 .4909973 .49583436 .4909973 .54777529 .47200013 .5937195 .43798829 .623703 .3959961 .6616974 .33599855 .67871096 .24299622 .67871096 .18299866 .67871096 .11999512 .67370608 .07598877 .66470339V0M.16299439 .603714C.1769867 .6077118 .20698548 .6117096 .24899292 .6117096 .34098817 .6107025 .4039917 .57273867 .4039917 .48583985 .4039917 .4089203 .34498597 .35798646 .2519989 .35798646H.16299439V.603714Z"/>
<path id="font_4_2" d="M.07598877 .0021362305C.10499573-.0018615723 .15098572-.005859375 .21099854-.005859375 .32099916-.005859375 .39698792 .014129639 .44400025 .057128908 .47799684 .09008789 .5009918 .13400269 .5009918 .19189453 .5009918 .29171754 .42599488 .34466554 .3619995 .36065675V.3626709C.43299867 .38867188 .47599793 .4456787 .47599793 .51068118 .47599793 .5636902 .45498658 .60369876 .41999818 .6296997 .37799073 .6636963 .32199098 .67871096 .23498535 .67871096 .17399597 .67871096 .11399841 .672699 .07598877 .66470339V.0021362305M.16299439 .60569766C.1769867 .6087036 .19999695 .6117096 .23999024 .6117096 .32798768 .6117096 .3880005 .58070376 .3880005 .50167849 .3880005 .43667604 .33399964 .38867188 .24198914 .38867188H.16299439V.60569766M.16299439 .32266236H.23498535C.32998658 .32266236 .40899659 .284729 .40899659 .19290161 .40899659 .095077518 .32598878 .06213379 .23599243 .06213379 .20498657 .06213379 .17999268 .06312561 .16299439 .06613159V.32266236Z"/>
<path id="font_4_7" d="M.07598877 .6738281V0H.16299439V.6738281H.07598877Z"/>
<path id="font_4_6" d="M.07598877 .6738281V0H.16299439V.31559754H.4889984V0H.57699587V.6738281H.4889984V.39160157H.16299439V.6738281H.07598877Z"/>
<path id="font_4_10" d="M.34899903 .6845703C.16899109 .6845703 .035995485 .5446472 .035995485 .33091737 .035995485 .12716675 .16099549-.0107421879 .33898927-.0107421879 .5109863-.0107421879 .6519928 .11218262 .6519928 .3439026 .6519928 .5436554 .5329895 .6845703 .34899903 .6845703M.34498597 .6135559C.48999024 .6135559 .55999758 .47373963 .55999758 .3399048 .55999758 .18708802 .48199464 .060256959 .34399415 .060256959 .20698548 .060256959 .1289978 .18908692 .1289978 .33291627 .1289978 .48072816 .20098877 .6135559 .34498597 .6135559Z"/>
<path id="font_4_8" d="M.07598877 0H.45098878V.07299805H.16299439V.6738281H.07598877V0Z"/>
<path id="font_4_13" d="M.07499695 .6738281V.2770996C.07499695 .068237308 .1789856-.0107421879 .31698609-.0107421879 .46299745-.0107421879 .57199099 .07423401 .57199099 .2810974V.6738281H.48399354V.2751007C.48399354 .12620545 .41999818 .060256959 .31999208 .060256959 .22999573 .060256959 .16299439 .12420654 .16299439 .2751007V.6738281H.07499695Z"/>
<path id="font_4_12" d="M.20399475 0H.2919922V.599823H.49798585V.6738281H-.0010070801V.599823H.20399475V0Z"/>
<path id="font_4_14" d="M.2769928 0 .37298585 .35090638C.397995 .4378662 .41299439 .5038452 .4249878 .57081606H.4269867C.43598939 .50283816 .44999696 .43685914 .47099305 .3508911L.55599978 0H.6469879L.83799746 .6738281H.7489929L.6599884 .33389283C.6389923 .24995423 .6199951 .17497254 .60598757 .100997928H.60398867C.59399417 .17196656 .57598879 .25195313 .5569916 .33192445L.47499085 .6738281H.38398744L.2939911 .33392335C.2709961 .24694824 .25 .16697693 .23899842 .099990848H.23699951C.22499085 .16497803 .20698548 .24894715 .18699646 .33293153L.10699463 .6738281H.01499939L.18598938 0H.2769928Z"/>
<path id="font_4_4" d="M.07598877 .0021362305C.11999512-.0028686524 .17199707-.005859375 .23399353-.005859375 .36499024-.005859375 .46899415 .028137207 .5319977 .09111023 .59498599 .15306092 .6289978 .24299622 .6289978 .35290528 .6289978 .4618225 .59399417 .5397644 .5339966 .5947113 .47499085 .649704 .38598634 .67871096 .26098634 .67871096 .19198609 .67871096 .1289978 .672699 .07598877 .66470339V.0021362305M.16299439 .600708C.18598938 .6057129 .21998596 .6097107 .2649994 .6097107 .44898988 .6097107 .5389862 .50878909 .5379944 .34991456 .5379944 .16804505 .43699647 .06413269 .25099183 .06413269 .21699524 .06413269 .18499756 .06513977 .16299439 .069122318V.600708Z"/>
</defs>
<g>
<g id="layer_1" data-name="Layer 1">
<g clip-path="url(#clip_1)">
<g opacity=".429993">
<g clip-path="url(#clip_2)">
</g>
</g>
</g>
<g id="layer_1" data-name="Layer 2">
</g>
<g clip-path="url(#clip_3)">
<path transform="matrix(1,0,0,-1,37.1904,176.45902)" stroke-width="8" stroke-linecap="butt" stroke-miterlimit="10" stroke-linejoin="miter" fill="none" stroke="#231f20" d="M0 0H550.021"/>
</g>
<path transform="matrix(1,0,0,-1,41.5024,396.5625)" stroke-width="8" stroke-linecap="butt" stroke-miterlimit="10" stroke-linejoin="miter" fill="none" stroke="#231f20" d="M0 0V220.104"/>
<path transform="matrix(1,0,0,-1,583.2598,381.5957)" stroke-width="8" stroke-linecap="butt" stroke-miterlimit="10" stroke-linejoin="miter" fill="none" stroke="#231f20" d="M0 0V205.137"/>
<path transform="matrix(1,0,0,-1,37.1904,396.5625)" stroke-width="8" stroke-linecap="butt" stroke-miterlimit="10" stroke-linejoin="miter" fill="none" stroke="#231f20" d="M0 0H152.157"/>
<path transform="matrix(1,0,0,-1,188.3472,437.0615)" stroke-width="8" stroke-linecap="butt" stroke-miterlimit="10" stroke-linejoin="miter" fill="none" stroke="#231f20" d="M0 0V40.499"/>
<path transform="matrix(1,0,0,-1,260.6802,437.0615)" stroke-width="8" stroke-linecap="butt" stroke-miterlimit="10" stroke-linejoin="miter" fill="none" stroke="#231f20" d="M0 0H-75.51"/>
<path transform="matrix(1,0,0,-1,256.0669,377.1973)" stroke-width="8" stroke-linecap="butt" stroke-miterlimit="10" stroke-linejoin="miter" fill="none" stroke="#231f20" d="M0 0V-59.864"/>
<path transform="matrix(1,0,0,-1,256.0332,418.5723)" stroke-width="8" stroke-linecap="butt" stroke-miterlimit="10" stroke-linejoin="miter" fill="none" stroke="#231f20" d="M0 0H65.191"/>
<path transform="matrix(1,0,0,-1,41.5024,310.2822)" stroke-width="8" stroke-linecap="butt" stroke-miterlimit="10" stroke-linejoin="miter" fill="none" stroke="#231f20" d="M0 0 118.331-.88"/>
<path transform="matrix(1,0,0,-1,191.9111,176.45902)" stroke-width="8" stroke-linecap="butt" stroke-miterlimit="10" stroke-linejoin="miter" fill="none" stroke="#231f20" d="M0 0V-144.388"/>
<path transform="matrix(1,0,0,-1,258.0566,320.8467)" stroke-width="8" stroke-linecap="butt" stroke-miterlimit="10" stroke-linejoin="miter" fill="none" stroke="#231f20" d="M0 0H-69.146"/>
<path transform="matrix(1,0,0,-1,299.4072,320.8467)" stroke-width="8" stroke-linecap="butt" stroke-miterlimit="10" stroke-linejoin="miter" fill="none" stroke="#231f20" d="M0 0H33.646"/>
<path transform="matrix(1,0,0,-1,316.6914,176.45902)" stroke-width="8" stroke-linecap="butt" stroke-miterlimit="10" stroke-linejoin="miter" fill="none" stroke="#231f20" d="M0 0V-144.388"/>
<path transform="matrix(1,0,0,-1,427.1475,176.45902)" stroke-width="8" stroke-linecap="butt" stroke-miterlimit="10" stroke-linejoin="miter" fill="none" stroke="#231f20" d="M0 0-.713-144.388"/>
<path transform="matrix(1,0,0,-1,366.8437,320.8467)" stroke-width="8" stroke-linecap="butt" stroke-miterlimit="10" stroke-linejoin="miter" fill="none" stroke="#231f20" d="M0 0H64.225"/>
<path transform="matrix(1,0,0,-1,286.3623,381.5957)" stroke-width="8" stroke-linecap="butt" stroke-miterlimit="10" stroke-linejoin="miter" fill="none" stroke="#231f20" d="M0 0H98.729"/>
<path transform="matrix(1,0,0,-1,316.2305,381.5957)" stroke-width="8" stroke-linecap="butt" stroke-miterlimit="10" stroke-linejoin="miter" fill="none" stroke="#231f20" d="M0 0 .461-36.977"/>
<path transform="matrix(1,0,0,-1,422.8711,381.5957)" stroke-width="8" stroke-linecap="butt" stroke-miterlimit="10" stroke-linejoin="miter" fill="none" stroke="#231f20" d="M0 0H160.389"/>
<path transform="matrix(1,0,0,-1,426.668,359.583)" stroke-width="8" stroke-linecap="butt" stroke-miterlimit="10" stroke-linejoin="miter" fill="none" stroke="#231f20" d="M0 0-.109-22.015"/>
<path transform="matrix(1,0,0,-1,151.2798,396.5625)" stroke-width="8" stroke-linecap="butt" stroke-miterlimit="10" stroke-linejoin="miter" fill="none" stroke="#231f20" d="M0 0V32.575"/>
<path transform="matrix(1,0,0,-1,151.2798,311.0986)" stroke-width="8" stroke-linecap="butt" stroke-miterlimit="10" stroke-linejoin="miter" fill="none" stroke="#231f20" d="M0 0V-19.01"/>
<path transform="matrix(1,0,0,-1,188.3472,396.5625)" stroke-width="8" stroke-linecap="butt" stroke-miterlimit="10" stroke-linejoin="miter" fill="none" stroke="#231f20" d="M0 0H38.137"/>
<path transform="matrix(1,0,0,-1,264.6206,381.5957)" stroke-width="8" stroke-linecap="butt" stroke-miterlimit="10" stroke-linejoin="miter" fill="none" stroke="#231f20" d="M0 0H-8.554"/>
<use data-text="C" xlink:href="#font_4_3" transform="matrix(18,0,0,-18,77.687,257.457)" fill="#231f20"/>
<use data-text="A" xlink:href="#font_4_1" transform="matrix(18,0,0,-18,88.199,257.457)" fill="#231f20"/>
<use data-text="M" xlink:href="#font_4_9" transform="matrix(18,0,0,-18,99.143,257.457)" fill="#231f20"/>
<use data-text="E" xlink:href="#font_4_5" transform="matrix(18,0,0,-18,113.615,257.457)" fill="#231f20"/>
<use data-text="R" xlink:href="#font_4_11" transform="matrix(18,0,0,-18,122.471,257.457)" fill="#231f20"/>
<use data-text="A" xlink:href="#font_4_1" transform="matrix(18,0,0,-18,132.245,257.457)" fill="#231f20"/>
<use data-text="B" xlink:href="#font_4_2" transform="matrix(18,0,0,-18,70.882999,360.867)" fill="#231f20"/>
<use data-text="A" xlink:href="#font_4_1" transform="matrix(18,0,0,-18,80.63899,360.867)" fill="#231f20"/>
<use data-text="I" xlink:href="#font_4_7" transform="matrix(18,0,0,-18,91.65499,360.867)" fill="#231f20"/>
<use data-text="E" xlink:href="#font_4_5" transform="matrix(18,0,0,-18,95.95699,360.867)" fill="#231f20"/>
<use data-text="H" xlink:href="#font_4_6" transform="matrix(18,0,0,-18,256.06703,355.431)" fill="#231f20"/>
<use data-text="O" xlink:href="#font_4_10" transform="matrix(18,0,0,-18,267.803,355.431)" fill="#231f20"/>
<use data-text="L" xlink:href="#font_4_8" transform="matrix(18,0,0,-18,280.20503,355.431)" fill="#231f20"/>
<use data-text="C" xlink:href="#font_4_3" transform="matrix(18,0,0,-18,222.92902,260.103)" fill="#231f20"/>
<use data-text="A" xlink:href="#font_4_1" transform="matrix(18,0,0,-18,233.44103,260.103)" fill="#231f20"/>
<use data-text="M" xlink:href="#font_4_9" transform="matrix(18,0,0,-18,244.38503,260.103)" fill="#231f20"/>
<use data-text="E" xlink:href="#font_4_5" transform="matrix(18,0,0,-18,258.85704,260.103)" fill="#231f20"/>
<use data-text="R" xlink:href="#font_4_11" transform="matrix(18,0,0,-18,267.713,260.103)" fill="#231f20"/>
<use data-text="A" xlink:href="#font_4_1" transform="matrix(18,0,0,-18,277.487,260.103)" fill="#231f20"/>
<use data-text="B" xlink:href="#font_4_2" transform="matrix(18,0,0,-18,333.053,257.457)" fill="#231f20"/>
<use data-text="U" xlink:href="#font_4_13" transform="matrix(18,0,0,-18,342.80903,257.457)" fill="#231f20"/>
<use data-text="C" xlink:href="#font_4_3" transform="matrix(18,0,0,-18,354.45503,257.457)" fill="#231f20"/>
<use data-text="A" xlink:href="#font_4_1" transform="matrix(18,0,0,-18,364.967,257.457)" fill="#231f20"/>
<use data-text="T" xlink:href="#font_4_12" transform="matrix(18,0,0,-18,374.5952,257.457)" fill="#231f20"/>
<use data-text="A" xlink:href="#font_4_1" transform="matrix(18,0,0,-18,382.19303,257.457)" fill="#231f20"/>
<use data-text="R" xlink:href="#font_4_11" transform="matrix(18,0,0,-18,393.209,257.457)" fill="#231f20"/>
<use data-text="I" xlink:href="#font_4_7" transform="matrix(18,0,0,-18,402.893,257.457)" fill="#231f20"/>
<use data-text="E" xlink:href="#font_4_5" transform="matrix(18,0,0,-18,407.195,257.457)" fill="#231f20"/>
<use data-text="C" xlink:href="#font_4_3" transform="matrix(18,0,0,-18,467.477,260.103)" fill="#231f20"/>
<use data-text="A" xlink:href="#font_4_1" transform="matrix(18,0,0,-18,477.98899,260.103)" fill="#231f20"/>
<use data-text="M" xlink:href="#font_4_9" transform="matrix(18,0,0,-18,488.93299,260.103)" fill="#231f20"/>
<use data-text="E" xlink:href="#font_4_5" transform="matrix(18,0,0,-18,503.40498,260.103)" fill="#231f20"/>
<use data-text="R" xlink:href="#font_4_11" transform="matrix(18,0,0,-18,512.261,260.103)" fill="#231f20"/>
<use data-text="A" xlink:href="#font_4_1" transform="matrix(18,0,0,-18,522.0332,260.103)" fill="#231f20"/>
<use data-text="W" xlink:href="#font_4_14" transform="matrix(18,0,0,-18,207.413,418.575)" fill="#231f20"/>
<use data-text="C" xlink:href="#font_4_3" transform="matrix(18,0,0,-18,222.64099,418.575)" fill="#231f20"/>
<use data-text="D" xlink:href="#font_4_4" transform="matrix(11.9004,0,0,-17.7559,264.6206,405.66499)" fill="#231f20"/>
<use data-text="E" xlink:href="#font_4_5" transform="matrix(11.9004,0,0,-17.7559,272.54627,405.66499)" fill="#231f20"/>
<use data-text="B" xlink:href="#font_4_2" transform="matrix(11.9004,0,0,-17.7559,278.40129,405.66499)" fill="#231f20"/>
<use data-text="A" xlink:href="#font_4_1" transform="matrix(11.9004,0,0,-17.7559,284.8513,405.66499)" fill="#231f20"/>
<use data-text="R" xlink:href="#font_4_11" transform="matrix(11.9004,0,0,-17.7559,292.13435,405.66499)" fill="#231f20"/>
<use data-text="A" xlink:href="#font_4_1" transform="matrix(11.9004,0,0,-17.7559,298.59507,405.66499)" fill="#231f20"/>
<path transform="matrix(1,0,0,-1,406.832,393.0996)" stroke-width="3" stroke-linecap="butt" stroke-miterlimit="10" stroke-linejoin="miter" fill="none" stroke="#030505" d="M0 0-1.741-34.356"/>
<path transform="matrix(1,0,0,-1,404.9639,392.82319)" stroke-width="3" stroke-linecap="butt" stroke-miterlimit="10" stroke-linejoin="miter" fill="none" stroke="#030505" d="M0 0 14.581-15.047"/>
<path transform="matrix(1,0,0,-1,407.7549,393.917)" stroke-width="3" stroke-linecap="butt" stroke-miterlimit="10" stroke-linejoin="miter" fill="none" stroke="#030505" d="M0 0-16.122-13.469"/>
</g>
</g>
</svg>
