<svg xmlns="http://www.w3.org/2000/svg" xmlns:xlink="http://www.w3.org/1999/xlink" version="1.1" width="600pt" height="600pt" viewBox="0 0 600 600">
<defs>
<path id="font_1_2" d="M.5289917 .09118652C.49398805 .07421875 .43998719 .06323242 .3869934 .06323242 .22299195 .06323242 .12799073 .1690979 .12799073 .33389283 .12799073 .51068118 .23298645 .611557 .3909912 .611557 .44699098 .611557 .49398805 .59957888 .5269928 .5836029L.5479889 .65527346C.5249939 .66656497 .47200013 .6845703 .3880005 .6845703 .1789856 .6845703 .035995485 .5416565 .035995485 .3309021 .035995485 .11016846 .1789856-.009765625 .36898805-.009765625 .45098878-.009765625 .5149994 .006225586 .5469971 .022232056L.5289917 .09118652Z"/>
<path id="font_1_5" d="M.42099 0C.4149933 .03300476 .41299439 .074020389 .41299439 .11602783V.2970581C.41299439 .39408876 .3769989 .4951172 .22898865 .4951172 .16799927 .4951172 .10998535 .47810365 .069992069 .45210267L.08999634 .39408876C.12399292 .41610719 .17098999 .43011476 .21598816 .43011476 .31498719 .43011476 .32598878 .358078 .32598878 .31806947V.3080597C.13899231 .30906678 .034988405 .24505615 .034988405 .1280365 .034988405 .058242799 .084991458-.0107421879 .18299866-.0107421879 .2519989-.0107421879 .3039856 .023254395 .33099366 .06124878H.33399964L.34098817 0H.42099M.32798768 .16304016C.32798768 .15415955 .32598878 .14416504 .32299806 .13517761 .30899049 .09420776 .2689972 .054244996 .20599365 .054244996 .16099549 .054244996 .12298584 .081222537 .12298584 .13816834 .12298584 .23207093 .23199463 .24906922 .32798768 .24707031V.16304016Z"/>
<path id="font_1_10" d="M.07299805 0H.15899658V.29206849C.15899658 .30706788 .16099549 .32208253 .1659851 .335083 .17999268 .37908937 .21998596 .42311097 .2749939 .42311097 .34199525 .42311097 .37599183 .36709596 .37599183 .29006959V0H.46199037V.29907228C.46199037 .31507875 .46499635 .3310852 .46899415 .3430786 .48399354 .38609315 .522995 .42311097 .57299807 .42311097 .6439972 .42311097 .6779938 .36709596 .6779938 .2740631V0H.7639923V.2850647C.7639923 .45310975 .6689911 .4951172 .6049957 .4951172 .5589905 .4951172 .5269928 .48310853 .49798585 .46110536 .47799684 .44610597 .45899964 .42510987 .44400025 .3981018H.44198609C.42099 .45510865 .37098695 .4951172 .30499269 .4951172 .22499085 .4951172 .17999268 .45210267 .15299988 .4060974H.1499939L.1459961 .484375H.068984989C.07199097 .44433595 .07299805 .40330506 .07299805 .35327149V0Z"/>
<path id="font_1_7" d="M.46199037 .22605896C.46299745 .23506165 .46499635 .24905396 .46499635 .26705934 .46499635 .3560791 .4229889 .4951172 .2649994 .4951172 .12399292 .4951172 .037994386 .38009645 .037994386 .23405457 .037994386 .0881958 .1269989-.009765625 .27598573-.009765625 .35299684-.009765625 .4059906 .006225586 .43699647 .020233155L.42199708 .08320618C.3889923 .06921387 .35099793 .05822754 .28799439 .05822754 .19999695 .05822754 .12399292 .107177738 .12199402 .22605896H.46199037M.12298584 .2890625C.12998963 .3500824 .16899109 .43211366 .2579956 .43211366 .35699464 .43211366 .3809967 .3450775 .37998963 .2890625H.12298584Z"/>
<path id="font_1_12" d="M.07299805 0H.1599884V.2580719C.1599884 .2730713 .1619873 .28707887 .1639862 .29907228 .17599488 .36509706 .21998596 .41210938 .28199769 .41210938 .2939911 .41210938 .30299378 .4111023 .31199647 .4091034V.4921875C.3039856 .4941101 .29699708 .4951172 .2869873 .4951172 .22799683 .4951172 .1749878 .45411683 .15299988 .38909913H.14898682L.1459961 .484375H.068984989C.07199097 .43933106 .07299805 .3902893 .07299805 .33325196V0Z"/>
<path id="font_1_1" d="M.07598877 .0021362305C.10499573-.0018615723 .15098572-.005859375 .21099854-.005859375 .32099916-.005859375 .39698792 .014129639 .44400025 .057128908 .47799684 .09008789 .5009918 .13400269 .5009918 .19189453 .5009918 .29171754 .42599488 .34466554 .3619995 .36065675V.3626709C.43299867 .38867188 .47599793 .4456787 .47599793 .51068118 .47599793 .5636902 .45498658 .60369876 .41999818 .6296997 .37799073 .6636963 .32199098 .67871096 .23498535 .67871096 .17399597 .67871096 .11399841 .672699 .07598877 .66470339V.0021362305M.16299439 .60569766C.1769867 .6087036 .19999695 .6117096 .23999024 .6117096 .32798768 .6117096 .3880005 .58070376 .3880005 .50167849 .3880005 .43667604 .33399964 .38867188 .24198914 .38867188H.16299439V.60569766M.16299439 .32266236H.23498535C.32998658 .32266236 .40899659 .284729 .40899659 .19290161 .40899659 .095077518 .32598878 .06213379 .23599243 .06213379 .20498657 .06213379 .17999268 .06312561 .16299439 .06613159V.32266236Z"/>
<path id="font_1_14" d="M.47799684 .484375H.3899994V.18728638C.3899994 .1712799 .3869934 .15527344 .38198854 .14227295 .3659973 .103256229 .32499696 .06225586 .2659912 .06225586 .18598938 .06225586 .1579895 .12426758 .1579895 .21629334V.484375H.069992069V.20129395C.069992069 .03125 .16099549-.0107421879 .23699951-.0107421879 .32299806-.0107421879 .37399293 .040252687 .39698792 .07925415H.39898683L.4039917 0H.48199464C.47898866 .038024904 .47799684 .08206177 .47799684 .13209534V.484375Z"/>
<path id="font_1_6" d="M.40299989 .08421326C.37799073 .07322693 .34498597 .06022644 .29499818 .06022644 .19898987 .06022644 .1269989 .12921143 .1269989 .24118042 .1269989 .3421631 .18699646 .4241333 .2979889 .4241333 .34599305 .4241333 .3789978 .4131317 .3999939 .4011383L.41999818 .46913148C.3959961 .48114015 .34999085 .49414063 .2979889 .49414063 .13999939 .49414063 .037994386 .38613893 .037994386 .23718262 .037994386 .08921814 .1329956-.009765625 .2789917-.009765625 .34399415-.009765625 .394989 .006225586 .41799928 .018234253L.40299989 .08421326Z"/>
<path id="font_1_13" d="M.09298706 .6003723V.484375H.017990113V.41737367H.09298706V.15325928C.09298706 .09623718 .101989749 .053222658 .1269989 .02722168 .147995 .0032196046 .18099976-.009765625 .22200012-.009765625 .2559967-.009765625 .2829895-.004776001 .2999878 .0022277833L.29599 .068222049C.2849884 .06523132 .2679901 .06222534 .24499512 .06222534 .19599915 .06222534 .1789856 .09623718 .1789856 .15626526V.41737367H.30499269V.484375H.1789856V.6233673L.09298706 .6003723Z"/>
<path id="font_1_8" d="M.16099549 0V.484375H.07299805V0H.16099549M.116989139 .6748047C.084991458 .6748047 .06199646 .6508026 .06199646 .61979678 .06199646 .589798 .083999637 .5657959 .114990238 .5657959 .1499939 .5657959 .17199707 .589798 .17098999 .61979678 .17098999 .6508026 .1499939 .6748047 .116989139 .6748047Z"/>
<path id="font_1_3" d="M.07598877 .6738281V0H.16299439V.31559754H.4889984V0H.57699587V.6738281H.4889984V.39160157H.16299439V.6738281H.07598877Z"/>
<path id="font_1_11" d="M.27799989 .4951172C.14399719 .4951172 .037994386 .40011598 .037994386 .2381897 .037994386 .085235599 .13899231-.0107421879 .269989-.0107421879 .3869934-.0107421879 .5109863 .06724548 .5109863 .2461853 .5109863 .39411927 .4169922 .4951172 .27799989 .4951172M.27598573 .42910768C.37998963 .42910768 .42099 .32514955 .42099 .24317932 .42099 .13421631 .35798646 .055252077 .27398683 .055252077 .18798828 .055252077 .1269989 .13522339 .1269989 .24118042 .1269989 .33314515 .17199707 .42910768 .27598573 .42910768Z"/>
<path id="font_1_9" d="M.07299805 0H.16099549V.70996096H.07299805V0Z"/>
<path id="font_1_4" d="M.2769928 0 .37298585 .35090638C.397995 .4378662 .41299439 .5038452 .4249878 .57081606H.4269867C.43598939 .50283816 .44999696 .43685914 .47099305 .3508911L.55599978 0H.6469879L.83799746 .6738281H.7489929L.6599884 .33389283C.6389923 .24995423 .6199951 .17497254 .60598757 .100997928H.60398867C.59399417 .17196656 .57598879 .25195313 .5569916 .33192445L.47499085 .6738281H.38398744L.2939911 .33392335C.2709961 .24694824 .25 .16697693 .23899842 .099990848H.23699951C.22499085 .16497803 .20698548 .24894715 .18699646 .33293153L.10699463 .6738281H.01499939L.18598938 0H.2769928Z"/>
</defs>
<g id="layer_1" data-name="Layer 1">
<path transform="matrix(1,0,0,-1,168.7554,113.43649)" stroke-width="8" stroke-linecap="butt" stroke-miterlimit="10" stroke-linejoin="miter" fill="none" stroke="#231f20" d="M0 0-.812-349.975"/>
<path transform="matrix(1,0,0,-1,336.7471,461.0313)" stroke-width="8" stroke-linecap="butt" stroke-miterlimit="10" stroke-linejoin="miter" fill="none" stroke="#231f20" d="M0 0-168.398 1.682"/>
<path transform="matrix(1,0,0,-1,330.9687,460.9756)" stroke-width="8" stroke-linecap="butt" stroke-miterlimit="10" stroke-linejoin="miter" fill="none" stroke="#231f20" d="M0 0V90.133"/>
<path transform="matrix(1,0,0,-1,362.8799,370.8428)" stroke-width="8" stroke-linecap="butt" stroke-miterlimit="10" stroke-linejoin="miter" fill="none" stroke="#231f20" d="M0 0H26.359"/>
<path transform="matrix(1,0,0,-1,164.7104,113.4111)" stroke-width="8" stroke-linecap="butt" stroke-miterlimit="10" stroke-linejoin="miter" fill="none" stroke="#231f20" d="M0 0 271.205-1.679"/>
<path transform="matrix(1,0,0,-1,384.7803,370.8428)" stroke-width="8" stroke-linecap="butt" stroke-miterlimit="10" stroke-linejoin="miter" fill="none" stroke="#231f20" d="M0 0V120.177"/>
<path transform="matrix(1,0,0,-1,431.0332,115.060489)" stroke-width="8" stroke-linecap="butt" stroke-miterlimit="10" stroke-linejoin="miter" fill="none" stroke="#231f20" d="M0 0-.812-135.605"/>
<path transform="matrix(1,0,0,-1,384.7803,250.6655)" stroke-width="8" stroke-linecap="butt" stroke-miterlimit="10" stroke-linejoin="miter" fill="none" stroke="#231f20" d="M0 0H49.501"/>
<path transform="matrix(1,0,0,-1,330.9687,370.8428)" stroke-width="8" stroke-linecap="butt" stroke-miterlimit="10" stroke-linejoin="miter" fill="none" stroke="#231f20" d="M0 0H11.556"/>
<path transform="matrix(1,0,0,-1,390.4326,182.8628)" stroke-width="8" stroke-linecap="butt" stroke-miterlimit="10" stroke-linejoin="miter" fill="none" stroke="#231f20" d="M0 0H39.789"/>
<path transform="matrix(1,0,0,-1,384.7803,250.6655)" stroke-width="8" stroke-linecap="butt" stroke-miterlimit="10" stroke-linejoin="miter" fill="none" stroke="#231f20" d="M0 0V33.292"/>
<path transform="matrix(1,0,0,-1,384.7803,114.248508)" stroke-width="8" stroke-linecap="butt" stroke-miterlimit="10" stroke-linejoin="miter" fill="none" stroke="#231f20" d="M0 0V-42.224"/>
<path transform="matrix(1,0,0,-1,390.4326,182.8628)" stroke-width="8" stroke-linecap="butt" stroke-miterlimit="10" stroke-linejoin="miter" fill="none" stroke="#231f20" d="M0 0H-5.652"/>
<path transform="matrix(1,0,0,-1,384.7803,173.5249)" stroke-width="8" stroke-linecap="butt" stroke-miterlimit="10" stroke-linejoin="miter" fill="none" stroke="#231f20" d="M0 0V-23.548"/>
<path transform="matrix(1,0,0,-1,168.8037,194.68549)" stroke-width="8" stroke-linecap="butt" stroke-miterlimit="10" stroke-linejoin="miter" fill="none" stroke="#231f20" d="M0 0H124.94"/>
<path transform="matrix(1,0,0,-1,168.0889,288.4238)" stroke-width="8" stroke-linecap="butt" stroke-miterlimit="10" stroke-linejoin="miter" fill="none" stroke="#231f20" d="M0 0H125.655"/>
<path transform="matrix(1,0,0,-1,167.623,370.8428)" stroke-width="8" stroke-linecap="butt" stroke-miterlimit="10" stroke-linejoin="miter" fill="none" stroke="#231f20" d="M0 0 119.97 .001"/>
<path transform="matrix(1,0,0,-1,330.9687,370.8428)" stroke-width="8" stroke-linecap="butt" stroke-miterlimit="10" stroke-linejoin="miter" fill="none" stroke="#231f20" d="M0 0H-10.368"/>
<path transform="matrix(1,0,0,-1,287.5928,370.8418)" stroke-width="8" stroke-linecap="butt" stroke-miterlimit="10" stroke-linejoin="miter" fill="none" stroke="#231f20" d="M0 0 12.301-.001"/>
<path transform="matrix(1,0,0,-1,293.7437,114.21039)" stroke-width="8" stroke-linecap="butt" stroke-miterlimit="10" stroke-linejoin="miter" fill="none" stroke="#231f20" d="M0 0V-47.134"/>
<path transform="matrix(1,0,0,-1,293.7437,194.68549)" stroke-width="8" stroke-linecap="butt" stroke-miterlimit="10" stroke-linejoin="miter" fill="none" stroke="#231f20" d="M0 0V-55.98"/>
<path transform="matrix(1,0,0,-1,293.7437,288.4238)" stroke-width="8" stroke-linecap="butt" stroke-miterlimit="10" stroke-linejoin="miter" fill="none" stroke="#231f20" d="M0 0V-39.382"/>
<path transform="matrix(1,0,0,-1,293.7437,370.8428)" stroke-width="8" stroke-linecap="butt" stroke-miterlimit="10" stroke-linejoin="miter" fill="none" stroke="#231f20" d="M0 0V17.864"/>
<path transform="matrix(1,0,0,-1,293.7437,288.4238)" stroke-width="8" stroke-linecap="butt" stroke-miterlimit="10" stroke-linejoin="miter" fill="none" stroke="#231f20" d="M0 0V13.398"/>
<path transform="matrix(1,0,0,-1,293.7437,194.68549)" stroke-width="8" stroke-linecap="butt" stroke-miterlimit="10" stroke-linejoin="miter" fill="none" stroke="#231f20" d="M0 0V11.823"/>
<path transform="matrix(1,0,0,-1,354.5342,378.77149)" stroke-width="3" stroke-linecap="butt" stroke-miterlimit="10" stroke-linejoin="miter" fill="none" stroke="#030505" d="M0 0-.232-35.039"/>
<path transform="matrix(1,0,0,-1,356.5713,378.5762)" stroke-width="3" stroke-linecap="butt" stroke-miterlimit="10" stroke-linejoin="miter" fill="none" stroke="#030505" d="M0 0-16.694-14.642"/>
<path transform="matrix(1,0,0,-1,353.4854,379.5605)" stroke-width="3" stroke-linecap="butt" stroke-miterlimit="10" stroke-linejoin="miter" fill="none" stroke="#030505" d="M0 0 16.605-14.445"/>
<use data-text="C" xlink:href="#font_1_2" transform="matrix(21.4857,0,0,-21.4857,193.9263,170.27829)" fill="#231f20"/>
<use data-text="a" xlink:href="#font_1_5" transform="matrix(21.4857,0,0,-21.4857,206.2376,170.27829)" fill="#231f20"/>
<use data-text="m" xlink:href="#font_1_10" transform="matrix(21.4857,0,0,-21.4857,216.5937,170.27829)" fill="#231f20"/>
<use data-text="e" xlink:href="#font_1_7" transform="matrix(21.4857,0,0,-21.4857,234.51279,170.27829)" fill="#231f20"/>
<use data-text="r" xlink:href="#font_1_12" transform="matrix(21.4857,0,0,-21.4857,245.27713,170.27829)" fill="#231f20"/>
<use data-text="a" xlink:href="#font_1_5" transform="matrix(21.4857,0,0,-21.4857,252.19553,170.27829)" fill="#231f20"/>
<use data-text="C" xlink:href="#font_1_2" transform="matrix(21.4857,0,0,-21.4857,193.9263,258.7779)" fill="#231f20"/>
<use data-text="a" xlink:href="#font_1_5" transform="matrix(21.4857,0,0,-21.4857,206.2376,258.7779)" fill="#231f20"/>
<use data-text="m" xlink:href="#font_1_10" transform="matrix(21.4857,0,0,-21.4857,216.5937,258.7779)" fill="#231f20"/>
<use data-text="e" xlink:href="#font_1_7" transform="matrix(21.4857,0,0,-21.4857,234.51279,258.7779)" fill="#231f20"/>
<use data-text="r" xlink:href="#font_1_12" transform="matrix(21.4857,0,0,-21.4857,245.27713,258.7779)" fill="#231f20"/>
<use data-text="a" xlink:href="#font_1_5" transform="matrix(21.4857,0,0,-21.4857,252.19553,258.7779)" fill="#231f20"/>
<use data-text="B" xlink:href="#font_1_1" transform="matrix(21.4857,0,0,-21.4857,193.9263,339.17738)" fill="#231f20"/>
<use data-text="u" xlink:href="#font_1_14" transform="matrix(21.4857,0,0,-21.4857,205.57155,339.17738)" fill="#231f20"/>
<use data-text="c" xlink:href="#font_1_6" transform="matrix(21.4857,0,0,-21.4857,217.41017,339.17738)" fill="#231f20"/>
<use data-text="a" xlink:href="#font_1_5" transform="matrix(21.4857,0,0,-21.4857,227.03577,339.17738)" fill="#231f20"/>
<use data-text="t" xlink:href="#font_1_13" transform="matrix(21.4857,0,0,-21.4857,237.30594,339.17738)" fill="#231f20"/>
<use data-text="a" xlink:href="#font_1_5" transform="matrix(21.4857,0,0,-21.4857,244.41771,339.17738)" fill="#231f20"/>
<use data-text="r" xlink:href="#font_1_12" transform="matrix(21.4857,0,0,-21.4857,254.77382,339.17738)" fill="#231f20"/>
<use data-text="i" xlink:href="#font_1_8" transform="matrix(21.4857,0,0,-21.4857,261.8856,339.17738)" fill="#231f20"/>
<use data-text="e" xlink:href="#font_1_7" transform="matrix(21.4857,0,0,-21.4857,266.91325,339.17738)" fill="#231f20"/>
<use data-text="C" xlink:href="#font_1_2" transform="matrix(21.4857,0,0,-21.4857,193.9263,422.8212)" fill="#231f20"/>
<use data-text="a" xlink:href="#font_1_5" transform="matrix(21.4857,0,0,-21.4857,206.2376,422.8212)" fill="#231f20"/>
<use data-text="m" xlink:href="#font_1_10" transform="matrix(21.4857,0,0,-21.4857,216.5937,422.8212)" fill="#231f20"/>
<use data-text="e" xlink:href="#font_1_7" transform="matrix(21.4857,0,0,-21.4857,234.51279,422.8212)" fill="#231f20"/>
<use data-text="r" xlink:href="#font_1_12" transform="matrix(21.4857,0,0,-21.4857,245.27713,422.8212)" fill="#231f20"/>
<use data-text="a" xlink:href="#font_1_5" transform="matrix(21.4857,0,0,-21.4857,252.19553,422.8212)" fill="#231f20"/>
<use data-text="H" xlink:href="#font_1_3" transform="matrix(21.4857,0,0,-21.4857,325.78407,258.79939)" fill="#231f20"/>
<use data-text="o" xlink:href="#font_1_11" transform="matrix(21.4857,0,0,-21.4857,339.79273,258.79939)" fill="#231f20"/>
<use data-text="l" xlink:href="#font_1_9" transform="matrix(21.4857,0,0,-21.4857,351.58839,258.79939)" fill="#231f20"/>
<use data-text="W" xlink:href="#font_1_4" transform="matrix(21.4857,0,0,-21.4857,390.43455,170.29978)" fill="#231f20"/>
<use data-text="C" xlink:href="#font_1_2" transform="matrix(21.4857,0,0,-21.4857,408.61146,170.29978)" fill="#231f20"/>
<use data-text="W" xlink:href="#font_1_4" transform="matrix(21.4857,0,0,-21.4857,387.59843,216.79483)" fill="#231f20"/>
<use data-text="C" xlink:href="#font_1_2" transform="matrix(21.4857,0,0,-21.4857,405.77534,216.79483)" fill="#231f20"/>
</g>
</svg>
