<svg version="1.1" xmlns="http://www.w3.org/2000/svg" xmlns:xlink="http://www.w3.org/1999/xlink" width="265" height="55" x="0px" y="0px" viewBox="0 0 265 55">
    <style type="text/css">
        .st0{fill:#010101;}
        .st1{fill:#3EA8DF;}
        .st2{fill:#EC1D25;}
        .st3{fill:none;stroke:#EB2024;stroke-miterlimit:10;}
        .st4{fill:#FFFFFF;}
        .st5{fill:#282A74;}
        .st6{fill:#F89821;}
        .st7{fill:#ED2225;}
        .st8{fill:#F2AE1D;}
    </style>
    <g>
        <path class="st0" d="M84.2,16.5c-0.2-3.8,3.2-7.3,7.4-7.3c4.1,0,7.5,3.3,7.4,7.3c0,4.1-3.3,7.2-7.5,7.3
    		C87.5,23.8,84,20.3,84.2,16.5z M97.3,16.5c0.1-2.9-2.5-5.6-5.7-5.6c-3.1,0-5.7,2.6-5.7,5.6s2.7,5.6,5.7,5.6
    		C94.7,22.1,97.3,19.5,97.3,16.5z"></path>
        <path class="st0" d="M130.7,23.5c-0.5,0-0.9,0-1.4,0c-0.1,0-0.3-0.3-0.3-0.4c0-1,0-2,0-3c0-1.7,0-3.4,0-5.1c0-0.3,0-0.5-0.4-0.5
    		c-0.1,0-0.2-0.1-0.2-0.1c-0.2-0.4-0.3-0.9-0.4-1.4c0.1,0,0.2-0.1,0.2-0.1c0.8-0.1,0.8-0.1,0.8-0.9c0-1.5,1.2-2.6,2.6-2.6
    		c1.5,0,2.7,1.1,2.7,2.6c0,3.7,0,7.4,0,11c0,0.3-0.1,0.4-0.4,0.4c-0.2,0-0.5,0-0.7,0c-0.4,0.1-0.5-0.1-0.5-0.5c0-2.6,0-5.2,0-7.8
    		c0-0.6,0-0.6-0.6-0.6c-0.3,0-0.6,0-0.8,0c-0.4,0-0.5,0.1-0.5,0.5c0,1.2,0,2.5,0,3.7c0,1.4,0,2.8,0,4.2
    		C130.7,23.1,130.7,23.2,130.7,23.5z M131.7,12.9c1,0,1.2-0.2,0.9-1.2c-0.1-0.5-0.4-0.6-1-0.6c-0.5,0-0.7,0.2-0.8,0.7
    		C130.5,12.8,130.6,12.9,131.7,12.9z"></path>
        <path class="st0" d="M51.1,11.9c0,0.2,0,0.4,0,0.6c0,3.5,0,7,0,10.4c0,0.5-0.1,0.6-0.6,0.6c-1.2,0-1.2,0-1.2-1.1c0-4,0-8.1,0-12.1
    		c0-0.6,0-0.6,0.6-0.7c0.8-0.1,1.4,0.3,2,0.7c0.4,0.3,0.9,0.6,1.5,1c0-0.5,0-0.9,0-1.3c0-0.3,0.1-0.5,0.5-0.5c1.3,0,1.3,0,1.3,1.3
    		c0,4,0,8,0,12c0,0.6,0,0.6-0.6,0.6c-1.1,0-1.1,0-1.1-1.1c0-2.8,0-5.7,0-8.5c0-0.4-0.1-0.6-0.4-0.8c-0.6-0.4-1.2-0.8-1.8-1.3
    		C51.2,11.8,51.1,11.8,51.1,11.9z"></path>
        <path class="st0" d="M107.5,21.1c0,0.7,0,1.3,0,2c0,0.3-0.1,0.4-0.5,0.4c-1.3,0-1.3,0-1.3-1.3c0-4,0-8,0-12c0-0.6,0-0.6,0.6-0.6
    		c1.5-0.1,3,0.1,4.2,1.1c1.8,1.4,2.7,3.2,2.3,5.5c-0.4,2.4-1.9,3.9-4.2,4.6C108.3,21,107.9,21,107.5,21.1z M107.5,11.3
    		c0,2.7,0,5.4,0,8c2-0.1,3.8-2.1,3.7-4.2C111.2,13.1,109.3,11.2,107.5,11.3z"></path>
        <path class="st0" d="M67.1,14.5c-1,0-2,0-2.9,0c0,0.2,0,0.3,0,0.5c0,2.1,0,4.2,0,6.3c0,0.4,0.1,0.5,0.5,0.5c0.5,0,1.1,0,1.6,0
    		c0.3,0,0.4,0.1,0.4,0.4c0.1,1.3,0.1,1.3-1.2,1.3c-0.8,0-1.6,0-2.4,0c-0.6,0-0.6,0-0.6-0.7c0-2.6,0-5.1,0-7.7c0-0.3,0.1-0.6-0.4-0.6
    		c0,0-0.1-0.1-0.2-0.1c-0.2-0.5-0.3-0.9-0.5-1.5c0.2,0,0.4-0.1,0.5,0c0.4,0,0.5-0.2,0.5-0.5c0-0.8,0-1.6,0-2.4
    		c0-0.3,0.1-0.4,0.4-0.4c1.2,0,2.3,0,3.5,0c0.2,0,0.4,0.1,0.4,0.3c0,1.6,0.2,1.3-1.2,1.3h-0.1c-1.3,0-1.3,0-1.2,1.3
    		c0,0.3,0.1,0.4,0.4,0.4c0.5,0,1.1,0,1.6,0c0.3,0,0.5,0.1,0.5,0.4C66.8,13.7,66.9,14,67.1,14.5z"></path>
        <path class="st0" d="M75.6,17.3c0-1.8,0-3.7,0-5.5c0-0.4-0.1-0.6-0.6-0.6c-0.3,0-0.6,0-0.9,0c-0.1,0-0.2,0-0.3,0
    		c-0.6-0.3-0.2-0.8-0.3-1.2c-0.1-0.2,0-0.4,0.3-0.4c1.7,0,3.3,0,5,0c0.3,0,0.4,0.1,0.4,0.4c0,1.5,0.2,1.2-1.2,1.3
    		c-0.9,0-0.8-0.1-0.8,0.8c0,3.6,0,7.2,0,10.8c0,0.6,0,0.6-0.6,0.6c-1.1,0-1.1,0-1.1-1.1C75.6,20.7,75.6,19,75.6,17.3z"></path>
        <path class="st0" d="M121.4,16.5c0,2.1,0,4.3,0,6.4c0,0.4-0.1,0.5-0.6,0.5c-1.1,0-1.1,0-1.1-1.1c0-4.1,0-8.1,0-12.2
    		c0-0.4,0.1-0.6,0.6-0.6c1.1,0,1.1,0,1.1,1.1C121.4,12.6,121.4,14.6,121.4,16.5z"></path>
        <path class="st0" d="M52.5,35.8v5.7h-3.3v-10h3.2v1.4h0.1c0.2-0.5,0.5-0.9,1-1.2c0.5-0.2,1.1-0.4,1.7-0.4c0.5,0,1,0,1.4,0.1
    		c0.4,0.1,0.8,0.3,1.1,0.6c0.3,0.3,0.5,0.7,0.5,1.2h0.2c0.1-0.7,0.4-1.2,0.9-1.5s1.2-0.5,1.9-0.5c1.2,0,2.1,0.3,2.6,0.8
    		c0.6,0.5,0.8,1.3,0.8,2.5v6.8h-3.2v-5.8c0-0.5-0.1-0.8-0.1-1S61.1,34,61,33.9c-0.2-0.1-0.5-0.1-0.9-0.1c-0.6,0-1,0.2-1.2,0.5
    		s-0.3,0.8-0.3,1.4v5.7h-3.3v-6.1c0-0.6-0.1-0.9-0.2-1.2c-0.1-0.2-0.5-0.4-1-0.4c-0.6,0-1.1,0.2-1.3,0.5
    		C52.6,34.6,52.5,35.1,52.5,35.8z"></path>
        <path class="st0" d="M71.4,31.4c1.1,0,2,0.1,2.6,0.2s1.1,0.4,1.5,0.8c0.4,0.4,0.6,0.9,0.7,1.5s0.2,1.5,0.2,2.6s-0.1,1.9-0.2,2.6
    		s-0.4,1.1-0.7,1.5c-0.4,0.4-0.8,0.6-1.5,0.8c-0.6,0.2-1.5,0.2-2.6,0.2c-1,0-1.9-0.1-2.5-0.2c-0.6-0.2-1.1-0.4-1.5-0.8
    		c-0.4-0.4-0.6-0.9-0.8-1.5c-0.1-0.6-0.2-1.5-0.2-2.5c0-1.1,0.1-1.9,0.2-2.6c0.1-0.6,0.4-1.1,0.7-1.5c0.3-0.4,0.8-0.6,1.5-0.8
    		C69.5,31.4,70.4,31.4,71.4,31.4z M71.5,33.9c-0.5,0-0.9,0.1-1.2,0.2c-0.2,0.1-0.4,0.4-0.5,0.7c-0.1,0.4-0.1,0.9-0.1,1.7
    		s0,1.3,0.1,1.7s0.2,0.6,0.5,0.7c0.2,0.1,0.6,0.2,1.2,0.2c0.4,0,0.7,0,0.9-0.1c0.2-0.1,0.4-0.2,0.5-0.4s0.2-0.4,0.2-0.7
    		s0.1-0.8,0.1-1.4c0-0.8,0-1.3-0.1-1.7s-0.2-0.6-0.4-0.7C72.4,33.9,72,33.9,71.5,33.9z"></path>
        <path class="st0" d="M81.3,39.7l0.1,1.7h-3.3V27.2h3.3v5.7h0.2c0.2-0.6,0.6-1,1.1-1.2s1-0.3,1.7-0.3s1.3,0.1,1.8,0.2
    		c0.5,0.2,0.9,0.4,1.2,0.7c0.3,0.3,0.5,0.8,0.7,1.3c0.1,0.5,0.2,1.2,0.2,2v2.3c0,1.3-0.3,2.2-1,2.8c-0.6,0.6-1.6,0.9-2.8,0.9
    		c-0.8,0-1.4-0.1-1.9-0.4c-0.5-0.3-0.8-0.7-1-1.5H81.3z M81.4,36.5c0,0.7,0,1.3,0.1,1.6s0.2,0.6,0.5,0.8s0.7,0.2,1.2,0.2
    		s0.8-0.1,1-0.2c0.2-0.1,0.4-0.4,0.5-0.8c0.1-0.4,0.1-0.9,0.1-1.6c0-0.6,0-1.1-0.1-1.5s-0.2-0.6-0.5-0.8c-0.2-0.2-0.6-0.3-1.1-0.3
    		S82.3,34,82,34.1c-0.3,0.1-0.4,0.4-0.5,0.7C81.5,35.1,81.4,35.7,81.4,36.5z"></path>
        <path class="st0" d="M92.8,27.2v2.5h-3.3v-2.5H92.8z M92.8,31.5v10h-3.3v-10H92.8z"></path>
        <path class="st0" d="M98,27.2v14.3h-3.3V27.2H98z"></path>
        <path class="st1" d="M104,41.5h-3.8V27.2h7.2c0.9,0,1.7,0.1,2.3,0.3c0.6,0.2,1.1,0.5,1.5,0.9s0.7,0.9,0.8,1.6
    		c0.2,0.7,0.3,1.5,0.3,2.4c0,1-0.1,1.9-0.2,2.6c-0.1,0.7-0.4,1.2-0.7,1.6c-0.3,0.4-0.8,0.7-1.5,0.9c-0.6,0.2-1.4,0.3-2.4,0.3h-3.4
    		v3.7H104z M104,34.5h2.6c0.5,0,0.9,0,1.1-0.1s0.4-0.3,0.5-0.6s0.1-0.7,0.1-1.4c0-0.5,0-0.9-0.1-1.2s-0.2-0.5-0.5-0.6
    		c-0.2-0.1-0.6-0.2-1.1-0.2H104V34.5z"></path>
        <path class="st1" d="M120,40h-0.1c-0.2,1.1-1.2,1.6-2.9,1.6c-0.8,0-1.5-0.1-2-0.3s-0.9-0.5-1.2-0.9c-0.3-0.5-0.4-1.1-0.4-1.9
    		c0-1.2,0.3-2,0.9-2.4c0.6-0.5,1.5-0.7,2.7-0.7c0.7,0,1.3,0.1,1.8,0.2c0.5,0.1,0.8,0.4,0.9,0.9h0.2v-1.6c0-0.6-0.1-0.9-0.3-1.2
    		c-0.2-0.2-0.6-0.3-1.2-0.3c-0.5,0-0.8,0.1-1,0.2c-0.2,0.2-0.3,0.4-0.3,0.9h-3.3c0-1,0.2-1.7,0.6-2.1c0.4-0.4,0.9-0.7,1.5-0.8
    		s1.4-0.2,2.5-0.2c1.2,0,2.2,0.1,2.8,0.3c0.7,0.2,1.1,0.5,1.5,1.1c0.3,0.5,0.5,1.4,0.5,2.5v6.2h-3.3L120,40z M119.9,38.2
    		c0-0.4-0.1-0.6-0.4-0.7c-0.3-0.1-0.7-0.2-1.4-0.2c-0.5,0-0.8,0.1-1.1,0.2c-0.2,0.1-0.4,0.4-0.4,0.8c0,0.5,0.1,0.8,0.4,0.9
    		s0.6,0.2,1,0.2c0.5,0,0.9,0,1.1-0.1s0.4-0.2,0.5-0.3C119.9,38.9,119.9,38.6,119.9,38.2z"></path>
        <path class="st1" d="M134.5,31.5L132,42.4c-0.2,0.9-0.4,1.6-0.8,2.1c-0.3,0.5-0.8,0.9-1.3,1.1c-0.6,0.2-1.3,0.3-2.2,0.3
    		c-0.1,0-0.2,0-0.3,0s-0.3,0-0.4,0c-0.1,0-0.3,0-0.3,0v-2.3c0.3,0,0.4,0,0.6,0c0.6,0,1.1-0.2,1.3-0.6c0.2-0.4,0.4-0.9,0.4-1.6h-1.8
    		l-3-10h3.4l2,8.1l0,0l1.6-8.1L134.5,31.5L134.5,31.5z"></path>
    </g>
    <g>
        <path class="st2" d="M36.8,31.6H2c-0.2,0-0.4-0.2-0.4-0.4c0,0-0.4-18-0.4-26.8c0-0.4,4.2-3.6,4.6-3.5l28.2,0c1.8,0,3.2,1.4,3.2,3.2
    		v27C37.3,31.4,37.1,31.6,36.8,31.6z"></path>
        <g>
            <path class="st2" d="M5.6,38.5V39c0,0.7-0.3,1-1,1H4.3v1.6H3.7v-4.1h1C5.3,37.5,5.6,37.9,5.6,38.5z M4.3,38.1v1.4h0.3
    			c0.2,0,0.3-0.1,0.3-0.4v-0.6c0-0.3-0.1-0.4-0.3-0.4H4.3z"></path>
            <path class="st2" d="M5.9,37.5h0.7V41h1.1v0.6H5.9V37.5z"></path>
            <path class="st2" d="M10,41.6H9.3l-0.1-0.8H8.4l-0.1,0.8H7.7l0.7-4.1h1L10,41.6z M9.6,36.6c0,0.4-0.2,0.7-0.7,0.7
    			c-0.4,0-0.7-0.3-0.7-0.7h0.4c0,0.2,0.1,0.3,0.3,0.3c0.2,0,0.3-0.1,0.3-0.3H9.6z M8.5,40.3h0.6l-0.3-2.1L8.5,40.3z"></path>
            <path class="st2" d="M10.1,37.5h2v0.6h-0.7v3.5h-0.7v-3.5H10L10.1,37.5L10.1,37.5z M10.9,42.4v-0.5h0.5v0.5l-0.3,0.4h-0.2l0.2-0.3
    			h-0.2V42.4z"></path>
            <path class="st2" d="M12.4,37.5h0.7v4.1h-0.7V37.5z"></path>
            <path class="st2" d="M15.4,37.5c0.6,0,1,0.4,1,1v0.1h-0.6v-0.2c0-0.3-0.1-0.4-0.3-0.4s-0.3,0.1-0.3,0.4c0,0.9,1.3,1,1.3,2.2
    			c0,0.7-0.3,1-1,1c-0.6,0-1-0.4-1-1v-0.3H15v0.3c0,0.3,0.1,0.4,0.3,0.4c0.2,0,0.3-0.1,0.3-0.4c0-0.9-1.3-1-1.3-2.2
    			C14.4,37.8,14.7,37.5,15.4,37.5z"></path>
            <path class="st2" d="M17.4,39.2h0.9v0.6h-0.9V41h1.1v0.6h-1.8v-4.1h1.8v0.6h-1.1V39.2z"></path>
            <path class="st2" d="M20.8,40.1v0.5c0,0.7-0.3,1-1,1c-0.6,0-1-0.4-1-1v-2.2c0-0.7,0.3-1,1-1c0.6,0,1,0.4,1,1v0.4h-0.6v-0.4
    			c0-0.3-0.1-0.4-0.3-0.4s-0.3,0.1-0.3,0.4v2.2c0,0.3,0.1,0.4,0.3,0.4s0.3-0.1,0.3-0.4V40L20.8,40.1L20.8,40.1z"></path>
            <path class="st2" d="M21.8,37.5v3.2c0,0.3,0.1,0.4,0.3,0.4s0.3-0.1,0.3-0.4v-3.2H23v3.2c0,0.7-0.3,1-1,1c-0.6,0-1-0.4-1-1v-3.2
    			H21.8z"></path>
            <path class="st2" d="M24.9,41.6c0-0.1-0.1-0.2-0.1-0.5v-0.6c0-0.4-0.1-0.5-0.4-0.5h-0.2v1.7h-0.7v-4.1h1c0.7,0,1,0.3,1,1v0.3
    			c0,0.4-0.1,0.7-0.4,0.8c0.3,0.1,0.4,0.5,0.4,0.9v0.6c0,0.2,0,0.3,0.1,0.5h-0.7V41.6z M24.2,38.1v1.3h0.3c0.2,0,0.4-0.1,0.4-0.4
    			v-0.4c0-0.3-0.1-0.4-0.3-0.4L24.2,38.1L24.2,38.1z"></path>
            <path class="st2" d="M25.9,37.5h0.7v4.1h-0.7V37.5z"></path>
            <path class="st2" d="M28.8,37.5v0.6l-1.2,3h1.2v0.6h-1.9v-0.6l1.2-3H27v-0.6H28.8z"></path>
            <path class="st2" d="M31.3,41.6h-0.7l-0.1-0.8h-0.8l-0.1,0.8H29l0.7-4.1h1L31.3,41.6z M29.8,40.3h0.6l-0.3-2.1L29.8,40.3z"></path>
            <path class="st2" d="M31.4,37.5h2v0.6h-0.7v3.5H32v-3.5h-0.7v-0.6H31.4z"></path>
            <path class="st2" d="M34.4,39.2h0.9v0.6h-0.9V41h1.1v0.6h-1.8v-4.1h1.8v0.6h-1.1V39.2z"></path>
            <path class="st2" d="M5.9,45.5h0.9v0.6H5.9v1.2H7v0.6H5.3v-4.1H7v0.6H5.9V45.5z"></path>
            <path class="st2" d="M8.1,45.6h0.8v0.6H8.1v1.7H7.4v-4.1h1.7v0.6H8v1.2H8.1z"></path>
            <path class="st2" d="M10.1,45.5H11v0.6h-0.9v1.2h1.1v0.6H9.4v-4.1h1.8v0.6h-1.1V45.5z"></path>
            <path class="st2" d="M13.5,46.3v0.5c0,0.7-0.3,1-1,1c-0.6,0-1-0.4-1-1v-2.2c0-0.7,0.3-1,1-1c0.6,0,1,0.4,1,1V45h-0.6v-0.4
    			c0-0.3-0.1-0.4-0.3-0.4c-0.2,0-0.3,0.1-0.3,0.4v2.2c0,0.3,0.1,0.4,0.3,0.4c0.2,0,0.3-0.1,0.3-0.4v-0.6L13.5,46.3L13.5,46.3z"></path>
            <path class="st2" d="M13.7,43.7h2v0.6H15v3.5h-0.7v-3.5h-0.7v-0.6H13.7z"></path>
            <path class="st2" d="M16.7,43.7v3.2c0,0.3,0.1,0.4,0.3,0.4s0.3-0.1,0.3-0.4v-3.2H18v3.2c0,0.7-0.3,1-1,1s-1-0.4-1-1v-3.2H16.7z"></path>
            <path class="st2" d="M20.5,47.9h-0.7l-0.1-0.8h-0.8l-0.1,0.8h-0.6l0.7-4.1h1L20.5,47.9z M19,46.5h0.6l-0.3-2.1L19,46.5z"></path>
            <path class="st2" d="M20.6,43.7h2v0.6H22v3.5h-0.7v-3.5h-0.7C20.6,44.3,20.6,43.7,20.6,43.7z"></path>
            <path class="st2" d="M23.6,45.5h0.9v0.6h-0.9v1.2h1.1v0.6h-1.8v-4.1h1.8v0.6h-1.1V45.5z"></path>
            <path class="st2" d="M27.9,44.7v0.5c0,0.7-0.3,1-1,1h-0.3v1.6H26v-4.1h1C27.6,43.7,27.9,44.1,27.9,44.7z M26.7,44.3v1.4H27
    			c0.2,0,0.3-0.1,0.3-0.4v-0.6c0-0.3-0.1-0.4-0.3-0.4H26.7z"></path>
            <path class="st2" d="M29.6,47.9c0-0.1-0.1-0.2-0.1-0.5v-0.6c0-0.4-0.1-0.5-0.4-0.5h-0.2V48h-0.7v-4.1h1c0.7,0,1,0.3,1,1V45
    			c0,0.4-0.1,0.7-0.4,0.8c0.3,0.1,0.4,0.5,0.4,0.9v0.6c0,0.2,0,0.3,0.1,0.5h-0.7V47.9z M28.9,44.3v1.3h0.3c0.2,0,0.4-0.1,0.4-0.4
    			v-0.4c0-0.3-0.1-0.4-0.3-0.4L28.9,44.3L28.9,44.3z"></path>
            <path class="st2" d="M30.7,43.7h0.7v4.1h-0.7V43.7z"></path>
            <path class="st2" d="M32.4,44.9v3h-0.6v-4.1h0.8l0.7,2.5v-2.5h0.6v4.1h-0.7L32.4,44.9z"></path>
        </g>
        <path class="st3" d="M32.3,54.2H6.4c-2.9,0-5.2-2.3-5.2-5.2V6c0-2.9,2.3-5.2,5.2-5.2h25.9c2.9,0,5.2,2.3,5.2,5.2v43
    		C37.5,51.9,35.2,54.2,32.3,54.2z"></path>
        <g>
            <path class="st4" d="M9.2,14.9h3.3c0,0,0,0.1,0,0.2c0,0.2,0,0.3,0,0.5c0,0.1,0,0.3,0,0.5s0,0.4,0.1,0.5c0,0.1,0.1,0.3,0.1,0.5
    			c0.1,0.2,0.1,0.3,0.2,0.4s0.2,0.2,0.3,0.2c0.1,0.1,0.3,0.1,0.5,0.1s0.3,0,0.5-0.1c0.1-0.1,0.3-0.1,0.3-0.2
    			c0.1-0.1,0.2-0.2,0.2-0.4c0.1-0.2,0.1-0.3,0.1-0.4s0.1-0.3,0.1-0.5s0-0.3,0-0.4s0-0.2,0-0.4c0-0.8-0.2-1.4-0.6-1.8
    			c-0.4-0.4-1-0.6-1.8-0.6V9.8c0.4,0,0.7,0,1-0.1c0.3,0,0.5-0.1,0.7-0.3c0.2-0.1,0.4-0.3,0.5-0.6c0.1-0.3,0.2-0.6,0.2-0.9
    			c0-0.2,0-0.5,0-0.6c0-0.2-0.1-0.4-0.2-0.6c-0.1-0.2-0.2-0.3-0.4-0.4c-0.2-0.1-0.4-0.2-0.7-0.2c-0.2,0-0.3,0-0.5,0.1
    			c-0.1,0.1-0.3,0.2-0.3,0.2c-0.1,0.1-0.2,0.2-0.2,0.4c-0.1,0.2-0.1,0.3-0.1,0.5c0,0.1-0.1,0.3-0.1,0.5s0,0.4,0,0.5s0,0.3,0,0.5
    			c0,0.1,0,0.1,0,0.2H9.1V8c0-1.4,0.4-2.5,1.2-3.4c0.8-0.8,1.9-1.2,3.4-1.2s2.6,0.4,3.4,1.2s1.2,1.9,1.2,3.3c0,0.7-0.1,1.4-0.4,2
    			s-0.7,1.1-1.3,1.5c0.6,0.4,1,1,1.3,1.7c0.3,0.7,0.4,1.5,0.4,2.3c0,0.8-0.1,1.5-0.3,2.1c-0.2,0.6-0.4,1.2-0.8,1.6
    			c-0.4,0.5-0.8,0.8-1.4,1.1c-0.6,0.3-1.3,0.4-2.1,0.4c-0.7,0-1.3-0.1-1.8-0.3c-0.5-0.2-1-0.4-1.3-0.7c-0.3-0.3-0.6-0.7-0.8-1.1
    			c-0.2-0.4-0.4-0.9-0.5-1.4s-0.1-1-0.2-1.6L9.2,14.9L9.2,14.9z"></path>
            <path class="st4" d="M19.9,20.2V3.7h3.6c1.1,0,2.1,0.1,2.8,0.3s1.3,0.5,1.7,1s0.7,1,0.9,1.6S29.1,8,29.1,9v5.4
    			c0,0.6,0,1.1-0.1,1.5c0,0.4-0.1,0.9-0.2,1.3c-0.1,0.4-0.2,0.8-0.4,1.1c-0.2,0.3-0.4,0.6-0.7,0.8c-0.3,0.3-0.6,0.4-1,0.6
    			c-0.4,0.1-0.9,0.3-1.4,0.3c-0.5,0.1-1.2,0.1-1.9,0.1h-3.5V20.2z M23.5,17.9c0.3,0,0.6,0,0.8,0c0.2,0,0.4,0,0.6-0.1
    			c0.2,0,0.3-0.1,0.4-0.2s0.2-0.2,0.2-0.3c0.1-0.1,0.1-0.3,0.1-0.4c0-0.2,0-0.4,0-0.6V7.4c0-0.5-0.2-0.9-0.5-1.1
    			C24.8,6.1,24.2,6,23.4,6v11.9H23.5z"></path>
        </g>
        <g>
            <path class="st4" d="M9,22.7c1.2,0,1.8,0.6,1.8,1.7v0.2H9.6v-0.3c0-0.5-0.2-0.7-0.6-0.7c-0.4,0-0.6,0.2-0.6,0.7
    			c0,1.4,2.4,1.7,2.4,3.6c0,1.1-0.6,1.7-1.9,1.7c-1.2,0-1.8-0.6-1.8-1.7v-0.4h1.2V28c0,0.5,0.2,0.7,0.6,0.7s0.6-0.2,0.6-0.7
    			c0-1.4-2.4-1.7-2.4-3.6C7.2,23.3,7.8,22.7,9,22.7z"></path>
            <path class="st4" d="M12.8,25.6h1.7v1h-1.7v2H15v1h-3.4v-6.8H15v1h-2.1v1.8H12.8z"></path>
            <path class="st4" d="M19.3,27v0.9c0,1.1-0.6,1.7-1.9,1.7c-1.2,0-1.8-0.6-1.8-1.7v-3.5c0-1.1,0.6-1.7,1.8-1.7
    			c1.2,0,1.9,0.6,1.9,1.7V25h-1.2v-0.7c0-0.5-0.2-0.7-0.6-0.7s-0.6,0.2-0.6,0.7V28c0,0.5,0.2,0.7,0.6,0.7s0.6-0.2,0.6-0.7v-1H19.3z"></path>
            <path class="st4" d="M21.3,22.7V28c0,0.5,0.2,0.7,0.6,0.7s0.6-0.2,0.6-0.7v-5.2h1.2v5.1c0,1.1-0.6,1.7-1.8,1.7
    			c-1.2,0-1.9-0.6-1.9-1.7v-5.1L21.3,22.7L21.3,22.7z"></path>
            <path class="st4" d="M27.2,29.5c-0.1-0.2-0.1-0.3-0.1-0.8v-1.1c0-0.6-0.2-0.9-0.8-0.9h-0.4v2.8h-1.2v-6.8h1.9
    			c1.3,0,1.8,0.5,1.8,1.6v0.5c0,0.7-0.3,1.2-0.8,1.4c0.6,0.2,0.8,0.7,0.8,1.4v1c0,0.3,0,0.6,0.1,0.8h-1.3V29.5z M25.8,23.7v2.1h0.5
    			c0.5,0,0.7-0.2,0.7-0.7v-0.7c0-0.5-0.2-0.7-0.6-0.7C26.4,23.7,25.8,23.7,25.8,23.7z"></path>
            <path class="st4" d="M30.4,25.6h1.7v1h-1.7v2h2.1v1h-3.4v-6.8h3.4v1h-2.1V25.6z"></path>
        </g>
    </g>
    <g>
        <g>
            <path class="st5" d="M191.3,32.5c-0.1,0.6-0.2,1.1-0.3,1.6c-0.5-0.2-1.1-0.4-1.9-0.4c-0.5,0-1,0.2-1,0.6c0,0.5,0.8,0.8,1.2,1
    			c0.8,0.4,1.6,0.9,1.7,1.9c0.1,0.8-0.3,1.5-0.7,1.9c-1.1,1-3.6,1.1-5.3,0.5c0.1-0.6,0.2-1.1,0.3-1.7c0.6,0.3,1.5,0.6,2.6,0.5
    			c0.4-0.1,1-0.3,1-0.8c0-0.6-1-0.9-1.6-1.2c-0.6-0.3-1.3-0.9-1.3-1.7c0-0.6,0.2-1.1,0.5-1.4C187.2,32.3,189.5,31.9,191.3,32.5z"></path>
            <polygon class="st5" points="171.1,21.4 173.4,21.4 171.9,30.2 169.7,30.2 		"></polygon>
            <path class="st5" d="M163.2,21.4h3.5c2.3,0,2.8,1.2,2.6,2.8c-0.2,1.2-1.1,2.2-2.3,2.5l2.3,3.6h-2.9l-1.6-3.5l-0.5,3.5H162
    			L163.2,21.4L163.2,21.4z M165.2,23.1l-0.3,2.3h0.6c0.6,0,1.2-0.5,1.3-1.1l0,0c0.1-0.6-0.3-1.1-1-1.1H165.2L165.2,23.1z"></path>
            <polygon class="st5" points="181.5,21.4 183.7,21.4 182.3,30.2 180,30.2 		"></polygon>
            <polygon class="st5" points="185.5,21.4 190.5,21.4 190.2,23.4 187.4,23.4 187.2,24.9 189.8,24.9 189.5,26.7 186.9,26.7
    			186.6,28.3 189.4,28.3 189,30.2 184,30.2 		"></polygon>
            <polygon class="st5" points="156.9,21.4 161.9,21.4 161.6,23.4 158.8,23.4 158.6,24.9 161.2,24.9 160.9,26.7 158.3,26.7 158,28.3
    			160.8,28.3 160.5,30.2 155.5,30.2 		"></polygon>
            <polygon class="st5" points="175.1,21.4 180.1,21.4 179.8,23.4 177.1,23.4 176.8,24.9 179.3,24.9 179,26.7 176.5,26.7 175.9,30.2
    			173.7,30.2 		"></polygon>
            <path class="st5" d="M191.8,21.4h3c3.5,0,4.3,2.7,4.1,4.4c-0.4,2.5-2.7,4.4-5.4,4.4h-3L191.8,21.4L191.8,21.4z M193.8,23.4
    			c0.2,0,0.3,0,0.5,0c1.7,0,2.5,1.2,2.3,2.4c-0.2,1.5-1.4,2.6-2.9,2.6c-0.2,0-0.4,0-0.6,0L193.8,23.4L193.8,23.4z"></path>
            <path class="st5" d="M146.2,20.2h4.2l0.5,6.5c2.8-4.8,5.6-9.4,8.5-14h1.3c-3,5.8-5.9,11.7-8.9,17.6h-3.1l-0.7-7.1
    			c-0.2-1.7-0.5-2.5-1.8-2.7L146.2,20.2L146.2,20.2z"></path>
            <polygon class="st6" points="147.8,16.6 151.4,18.1 151.7,22.1 152,22.1 155.3,16.6 155.3,16.3 147.8,16.3 		"></polygon>
            <path class="st5" d="M164.4,36.6c0.5,0,0.9,0.5,0.8,1.1c-0.1,0.6-0.6,1.1-1.1,1.1s-0.9-0.5-0.8-1.1S163.9,36.6,164.4,36.6
    			L164.4,36.6z M162.5,32.3h1.4l-0.5,3.5c0.4-0.4,0.9-0.6,1.5-0.6c1.2,0,1.9,1.1,1.7,2.6c-0.2,1.4-1.3,2.6-2.5,2.6
    			c-0.6,0-1-0.3-1.3-0.7l-0.1,0.5h-1.4L162.5,32.3L162.5,32.3z"></path>
            <polygon class="st5" points="166.9,35.2 168.7,35.2 169.5,37.7 171,35.2 172.7,35.2 168.3,42.4 166.5,42.4 168.4,39.4 		"></polygon>
            <polygon class="st5" points="181.5,40 182.8,32.3 184.9,32.3 183.6,40 		"></polygon>
            <path class="st5" d="M179.7,32.3c-0.7,1.7-1.3,3.6-2.2,5.2l-0.2-1l0,0v0.2c-0.2-0.5-0.4-1-0.8-1.5l0,0c-0.1-0.1-0.1-0.2-0.2-0.2
    			l-0.1-0.1c-0.5-0.5-1.1-1-1.7-1.4l1.8,6.7h2.3c1-2.7,2.3-5.1,3.3-7.8C181.2,32.3,180.4,32.3,179.7,32.3z"></path>
            <path class="st6" d="M175.7,32.3h-3.5v0.2c1.9,0.4,4.5,2,5.1,4.2l-0.7-3.6C176.6,32.5,176.1,32.3,175.7,32.3z"></path>
            <path class="st5" d="M198.4,40c-0.6,0-1.3,0-1.9,0c-0.1-0.4-0.2-0.8-0.3-1.2c-0.9,0-1.7,0-2.7,0l-0.5,1.2c-0.7,0-1.4,0-2.3,0
    			l2.9-6.7c0.1-0.3,0.3-0.7,0.4-0.8c0.1-0.3,0.7-0.3,0.9-0.3h1.6L198.4,40z M195.2,34.4l-1.1,2.9h1.7L195.2,34.4z"></path>
        </g>
        <g>
            <path class="st7" d="M261.2,29.6c0-0.6,0.5-1.1,1.1-1.1s1.1,0.5,1.1,1.1c0,0.6-0.5,1.1-1.1,1.1S261.2,30.2,261.2,29.6L261.2,29.6
    			L261.2,29.6z M262.3,30.5c0.5,0,0.8-0.4,0.8-0.9s-0.4-0.9-0.8-0.9c-0.5,0-0.8,0.4-0.8,0.9C261.5,30.1,261.8,30.5,262.3,30.5
    			L262.3,30.5L262.3,30.5z M262.2,30.1H262v-1h0.4c0.1,0,0.2,0,0.2,0c0.1,0,0.1,0.1,0.1,0.2c0,0.1-0.1,0.2-0.2,0.2l0.2,0.4h-0.2
    			l-0.1-0.4h-0.2L262.2,30.1L262.2,30.1L262.2,30.1z M262.2,29.5h0.1h0.1v-0.1v-0.1h-0.1h-0.1V29.5L262.2,29.5L262.2,29.5z"></path>
            <path class="st7" d="M245.7,22l-0.3,1.9c-0.6-0.3-1.1-0.5-1.6-0.5c-1.3,0-2.3,1.4-2.3,3.3c0,1.3,0.6,2.2,1.7,2.2
    			c0.4,0,0.9-0.1,1.5-0.5l-0.3,2c-0.7,0.2-1.1,0.3-1.6,0.3c-2,0-3.2-1.5-3.2-3.8c0-3.2,1.7-5.4,4.1-5.4c0.3,0,0.6,0,0.8,0.1l0.8,0.2
    			C245.5,21.9,245.5,21.9,245.7,22L245.7,22L245.7,22z"></path>
            <path class="st7" d="M239.6,23.3c0,0-0.1,0-0.2,0c-0.6,0-0.9,0.3-1.5,1.2l0.2-1.1h-1.6l-1.1,7.3h1.8c0.7-4.4,0.8-5.2,1.7-5.2h0.1
    			C239.2,24.6,239.4,23.9,239.6,23.3L239.6,23.3L239.6,23.3L239.6,23.3z"></path>
            <path class="st7" d="M228.8,30.5c-0.5,0.2-0.9,0.2-1.3,0.2c-0.9,0-1.4-0.6-1.4-1.6c0-0.2,0-0.4,0-0.7l0.1-0.7l0.1-0.6l0.8-5h1.8
    			l-0.2,1.1h0.9l-0.3,1.8h-0.9l-0.5,3c0,0.1,0,0.2,0,0.3c0,0.4,0.2,0.5,0.6,0.5c0.2,0,0.4,0,0.5-0.1L228.8,30.5L228.8,30.5
    			L228.8,30.5z"></path>
            <path class="st7" d="M221.6,25.7c0,0.9,0.4,1.5,1.4,2c0.7,0.4,0.9,0.5,0.9,0.8c0,0.4-0.3,0.7-1,0.7c-0.5,0-1-0.1-1.6-0.3l-0.2,1.7
    			h0.1l0.3,0.1c0.1,0,0.3,0,0.5,0.1c0.4,0,0.8,0.1,1,0.1c1.9,0,2.8-0.8,2.8-2.4c0-1-0.4-1.6-1.3-2c-0.8-0.4-0.8-0.4-0.8-0.8
    			s0.3-0.6,0.9-0.6c0.4,0,0.8,0,1.3,0.1l0.3-1.7c-0.5-0.1-1.2-0.1-1.6-0.1C222.3,23.2,221.6,24.3,221.6,25.7L221.6,25.7L221.6,25.7z
    			"></path>
            <path class="st7" d="M260.2,30.6h-1.7l0.1-0.7c-0.5,0.6-1,0.8-1.7,0.8c-1.3,0-2.2-1.2-2.2-3c0-2.4,1.3-4.5,3-4.5
    			c0.7,0,1.2,0.3,1.7,1l0.4-2.5h1.8L260.2,30.6L260.2,30.6L260.2,30.6z M257.5,28.9c0.9,0,1.4-1,1.4-2.5c0-0.9-0.3-1.4-1-1.4
    			c-0.8,0-1.4,1-1.4,2.4C256.5,28.4,256.9,28.9,257.5,28.9L257.5,28.9L257.5,28.9z"></path>
            <path class="st7" d="M234.5,30.5c-0.6,0.2-1.2,0.3-1.9,0.3c-2,0-3.1-1.1-3.1-3.3c0-2.5,1.3-4.3,3.2-4.3c1.5,0,2.5,1,2.5,2.6
    			c0,0.5-0.1,1.1-0.2,1.8h-3.6c0,0.1,0,0.2,0,0.2c0,0.9,0.5,1.3,1.6,1.3c0.6,0,1.2-0.1,1.9-0.5L234.5,30.5L234.5,30.5L234.5,30.5z
    			 M233.5,26.1c0-0.1,0-0.3,0-0.4c0-0.6-0.3-0.9-0.9-0.9s-1,0.5-1.2,1.3L233.5,26.1L233.5,26.1L233.5,26.1z"></path>
            <polygon class="st7" points="214.3,30.6 212.5,30.6 213.5,23.8 211.2,30.6 210,30.6 209.8,23.8 208.7,30.6 207,30.6 208.4,21.7
    			211,21.7 211.1,27.2 212.9,21.7 215.7,21.7 		"></polygon>
            <path class="st7" d="M219,27.4c-0.2,0-0.3,0-0.4,0c-1,0-1.5,0.4-1.5,1.1c0,0.4,0.3,0.7,0.7,0.7C218.4,29.2,218.9,28.5,219,27.4
    			L219,27.4L219,27.4z M220.3,30.6h-1.5v-0.8c-0.5,0.6-1.1,0.9-1.9,0.9c-1,0-1.7-0.8-1.7-2c0-1.8,1.2-2.8,3.2-2.8c0.2,0,0.5,0,0.7,0
    			c0-0.2,0.1-0.3,0.1-0.5c0-0.5-0.3-0.7-1.2-0.7c-0.5,0-1.1,0.1-1.5,0.2l-0.2,0.1h-0.2l0.2-1.6c0.9-0.3,1.5-0.4,2.2-0.4
    			c1.6,0,2.4,0.7,2.4,2.1c0,0.4,0,0.6-0.1,1.4l-0.4,2.6l-0.1,0.5V30v0.3V30.6L220.3,30.6L220.3,30.6z"></path>
            <path class="st7" d="M248.8,27.4c-0.2,0-0.3,0-0.4,0c-1,0-1.6,0.4-1.6,1.1c0,0.4,0.3,0.7,0.7,0.7
    			C248.2,29.2,248.8,28.5,248.8,27.4L248.8,27.4L248.8,27.4z M250.1,30.6h-1.5v-0.8c-0.5,0.6-1.1,0.9-1.9,0.9c-1,0-1.7-0.8-1.7-2
    			c0-1.8,1.2-2.8,3.2-2.8c0.2,0,0.5,0,0.7,0c0-0.2,0.1-0.3,0.1-0.5c0-0.5-0.3-0.7-1.2-0.7c-0.5,0-1.1,0.1-1.5,0.2L246,25h-0.2
    			l0.2-1.6c0.9-0.3,1.5-0.4,2.2-0.4c1.6,0,2.4,0.7,2.4,2.1c0,0.4,0,0.6-0.1,1.4l-0.4,2.6v0.5V30v0.2L250.1,30.6L250.1,30.6
    			L250.1,30.6z"></path>
            <path class="st7" d="M255.2,23.3c0,0-0.1,0-0.2,0c-0.6,0-0.9,0.3-1.5,1.2l0.2-1.1h-1.6l-1.1,7.3h1.8c0.7-4.4,0.8-5.2,1.7-5.2
    			c0,0,0,0,0.1,0C254.8,24.6,255,23.9,255.2,23.3L255.2,23.3L255.2,23.3L255.2,23.3z"></path>
            <path class="st8" d="M247.6,37.7c0,1.6-0.5,2.6-1.3,2.6c-0.6,0-0.9-0.6-0.9-1.6c0-1.2,0.5-2.5,1.3-2.5
    			C247.4,36.2,247.6,36.9,247.6,37.7L247.6,37.7L247.6,37.7z M249.4,37.7c0-1.8-0.9-3.3-2.6-3.3c-2,0-3.2,1.7-3.2,4.3
    			c0,1.8,0.8,3.3,2.6,3.3S249.4,40.7,249.4,37.7L249.4,37.7L249.4,37.7z"></path>
            <path class="st8" d="M244.1,33.2l-0.3,1.9c-0.6-0.3-1-0.5-1.5-0.5c-1.3,0-2.2,1.4-2.2,3.3c0,1.3,0.6,2.2,1.6,2.2
    			c0.4,0,0.9-0.1,1.4-0.5l-0.3,2c-0.6,0.2-1,0.3-1.5,0.3c-1.8,0-3-1.5-3-3.8c0-3.2,1.6-5.4,3.8-5.4c0.3,0,0.5,0,0.8,0.1l0.7,0.2
    			C243.9,33.1,244,33.1,244.1,33.2L244.1,33.2L244.1,33.2z"></path>
            <path class="st8" d="M232.9,34.5c0,0-0.1,0-0.2,0c-0.6,0-0.9,0.3-1.4,1.2l0.2-1.1H230l-1,7.3h1.7c0.6-4.4,0.8-5.2,1.6-5.2
    			c0,0,0,0,0.1,0C232.5,35.8,232.7,35.1,232.9,34.5L232.9,34.5L232.9,34.5L232.9,34.5z"></path>
            <path class="st8" d="M255.1,41.7h-1.6l0.1-0.7c-0.5,0.6-1,0.8-1.6,0.8c-1.2,0-2.1-1.2-2.1-3c0-2.4,1.3-4.5,2.8-4.5
    			c0.7,0,1.2,0.3,1.6,1l0.4-2.5h1.7L255.1,41.7L255.1,41.7L255.1,41.7z M252.6,40c0.8,0,1.3-1,1.3-2.5c0-0.9-0.3-1.4-0.9-1.4
    			c-0.8,0-1.3,1-1.3,2.4C251.7,39.6,252,40,252.6,40L252.6,40L252.6,40z"></path>
            <path class="st8" d="M217,41.7c-0.6,0.2-1.1,0.3-1.7,0.3c-1.9,0-2.9-1.1-2.9-3.3c0-2.5,1.3-4.3,3-4.3c1.4,0,2.3,1,2.3,2.6
    			c0,0.5-0.1,1.1-0.2,1.8h-3.4c0,0.1,0,0.2,0,0.2c0,0.8,0.5,1.3,1.5,1.3c0.6,0,1.2-0.1,1.8-0.5L217,41.7L217,41.7L217,41.7z
    			 M216,37.4c0-0.1,0-0.3,0-0.4c0-0.6-0.3-0.9-0.8-0.9s-0.9,0.5-1.1,1.3H216L216,37.4L216,37.4z"></path>
            <path class="st8" d="M237.2,41.7c-0.6,0.2-1.1,0.3-1.7,0.3c-1.9,0-2.9-1.1-2.9-3.3c0-2.5,1.3-4.3,3-4.3c1.4,0,2.3,1,2.3,2.6
    			c0,0.5-0.1,1.1-0.2,1.8h-3.4c0,0.1,0,0.2,0,0.2c0,0.8,0.5,1.3,1.5,1.3c0.6,0,1.2-0.1,1.8-0.5L237.2,41.7L237.2,41.7L237.2,41.7z
    			 M236.2,37.4c0-0.1,0-0.3,0-0.4c0-0.6-0.3-0.9-0.8-0.9s-0.9,0.5-1.1,1.3H236.2L236.2,37.4L236.2,37.4z"></path>
            <path class="st8" d="M260.9,41.7c-0.6,0.2-1.2,0.3-1.7,0.3c-1.9,0-2.9-1.1-2.9-3.3c0-2.5,1.3-4.3,3-4.3c1.4,0,2.3,1,2.3,2.6
    			c0,0.5-0.1,1.1-0.2,1.8H258c0,0.1,0,0.2,0,0.2c0,0.8,0.5,1.3,1.5,1.3c0.6,0,1.2-0.1,1.8-0.5L260.9,41.7L260.9,41.7L260.9,41.7z
    			 M259.9,37.4c0-0.1,0-0.3,0-0.4c0-0.6-0.3-0.9-0.8-0.9s-0.9,0.5-1.1,1.3H259.9L259.9,37.4L259.9,37.4z"></path>
            <path class="st8" d="M211.9,34.8c-0.3-0.2-0.8-0.4-1.4-0.4c-0.7,0-1.2,0.1-1.2,0.9c0,1.3,2.5,0.8,2.5,3.6c0,2.5-1.6,3.2-3.1,3.2
    			c-0.7,0-1.4-0.2-2-0.5l0.4-1.8c0.3,0.3,1,0.5,1.6,0.5c0.5,0,1.4-0.1,1.4-1.1c0-1.5-2.5-0.9-2.5-3.5c0-2.4,1.5-3,2.9-3
    			c0.8,0,1.5,0.1,2,0.4L211.9,34.8L211.9,34.8L211.9,34.8z"></path>
            <path class="st8" d="M221.9,41.7c-0.3,0.2-0.8,0.3-1.5,0.3c-1.5,0-2.4-1.5-2.4-3.3c0-2.4,1.3-4.2,3.3-4.2c0.4,0,1.1,0.2,1.6,0.5
    			l-0.4,1.7c-0.4-0.2-0.7-0.4-1.1-0.4c-0.9,0-1.6,0.8-1.6,2.3c0,0.9,0.5,1.6,1.2,1.6c0.4,0,0.8-0.1,1.1-0.3L221.9,41.7L221.9,41.7
    			L221.9,41.7z"></path>
            <path class="st8" d="M228.3,39.9c-0.1,0.6-0.2,1.2-0.2,1.9h-1.6l0.1-1.2l0,0c-0.5,0.8-1,1.3-2,1.3s-1.6-1.1-1.6-2.5
    			c0-0.5,0-0.8,0.1-1.5l0.5-3.4h1.8l-0.5,3.4c0,0.4-0.1,0.7-0.1,1.1c0,0.4,0.2,0.9,0.7,0.8c0.7,0,1.2-0.9,1.3-2l0.5-3.3h1.8
    			L228.3,39.9L228.3,39.9L228.3,39.9z"></path>
            <polygon class="st8" points="262.6,41.7 262.3,41.7 262.3,40.5 261.9,40.5 261.9,40.2 262.9,40.2 262.9,40.5 262.6,40.5 		"></polygon>
            <polygon class="st8" points="264.4,41.7 264.1,41.7 264.1,40.5 264.1,40.5 263.9,41.7 263.6,41.7 263.4,40.5 263.4,40.5
    			263.4,41.7 263.1,41.7 263.1,40.2 263.5,40.2 263.7,41.4 263.8,41.4 264,40.2 264.4,40.2 		"></polygon>
        </g>
    </g>
</svg>
