<svg version="1.1" xmlns="http://www.w3.org/2000/svg" xmlns:xlink="http://www.w3.org/1999/xlink" x="0px" y="0px" viewBox="0 0 811 80">
    <g>
        <path d="M38,1.4C15.8,1.4,0.2,18.8,0.2,40.7v0.3c0,23.3,16.6,38.9,40.2,38.9c15,0,25.4-6.1,32.6-15.2L58.4,52.6
			C53,57.9,48,60.2,41.8,60.2c-8.2,0-14.1-4.2-16.2-12.3h50.2c0.1-1.8,0.1-3.7,0.1-5.4C75.9,20.4,63.9,1.4,38,1.4z M25.1,34.4
			c1.4-8.2,6.1-13.6,13-13.6c7.2,0,12.1,5.3,13,13.6H25.1z"></path>
        <path d="M116.6,1.5h-33v76.9h21.3v-22h10.5c19.1,0,33.1-9.6,33.1-27.7v-0.2C148.6,11.5,136,1.5,116.6,1.5z M127.2,29.8
			c0,6-4.6,10-12.2,10h-10.1V19.5h10c7.7,0,12.3,3.5,12.3,10.1V29.8z"></path>
        <path d="M225.8,28v-0.2c0-7.6-2.3-13.5-6.8-17.9c-5.2-5.3-13.3-8.4-25.1-8.4h-36.4v76.9h21.3V55.2h9.1h0.2l15.5,23.3h24.6L210,51.6
			C219.5,47.6,225.8,39.8,225.8,28z M204.4,29.3c0,5.6-4.2,9.1-11.4,9.1h-14.1V20h14c7.1,0,11.5,3.1,11.5,9.1V29.3z"></path>
        <path d="M275.5,0c-23.7,0-41.5,17.9-41.5,40v0.2c0,22.1,17.6,39.8,41.3,39.8c23.7,0,41.5-17.9,41.5-40v-0.2
			C316.8,17.7,299.2,0,275.5,0z M295,40.2c0,11.1-7.8,20.5-19.6,20.5c-11.6,0-19.7-9.7-19.7-20.8v-0.2c0-11.1,7.8-20.5,19.5-20.5
			C287,19.2,295,28.9,295,40V40.2z"></path>
        <path d="M360.9,1.5h-33v76.9h21.3v-22h10.5c19.1,0,33.1-9.6,33.1-27.7v-0.2C392.8,11.5,380.3,1.5,360.9,1.5z M371.5,29.8
			c0,6-4.6,10-12.2,10h-10.1V19.5h10c7.7,0,12.3,3.5,12.3,10.1V29.8z"></path>
        <path d="M470.1,28v-0.2c0-7.6-2.3-13.5-6.8-17.9c-5.2-5.3-13.3-8.4-25.1-8.4h-36.4v76.9h21.3V55.2h9.1h0.2L448,78.5h24.6
			l-18.4-26.8C463.8,47.6,470.1,39.8,470.1,28z M448.6,29.3c0,5.6-4.2,9.1-11.4,9.1h-14.1V20h14c7.1,0,11.5,3.1,11.5,9.1V29.3z"></path>
        <rect x="481.3" y="1.5" width="21.4" height="76.9"></rect>
        <polygon points="537.9,48.1 574.8,48.1 574.8,31.3 537.9,31.3 537.9,19.7 578.6,19.7 578.6,1.5 516.8,1.5 516.8,78.5 579.2,78.5
			579.2,60.3 537.9,60.3"></polygon>
        <polygon points="653.2,1.5 585.8,1.5 585.8,20.2 608.9,20.2 608.9,78.5 630.2,78.5 630.2,20.2 653.2,20.2"></polygon>
        <path d="M679.3,1l-32.7,77.5H669l5.5-13.7h29.7l5.6,13.7h22.9L699.8,1H679.3z M680.7,48.1l8.7-21.9l8.6,21.9H680.7z"></path>
        <path d="M792.5,51.6c9.6-4.1,15.8-11.9,15.8-23.6v-0.2c0-7.6-2.3-13.5-6.8-17.9c-5.2-5.3-13.3-8.4-25.1-8.4H740v76.9h21.3V55.2h9.1
			h0.2l15.5,23.3h24.6L792.5,51.6z M786.9,29.3c0,5.6-4.2,9.1-11.4,9.1h-14.1V20h14c7.1,0,11.5,3.1,11.5,9.1V29.3z"></path>
    </g>
</svg>
